<svg width="179" height="52" fill="none" xmlns="http://www.w3.org/2000/svg"><path d="M55 26.5A13.5 13.5 0 1 1 41.5 13" stroke="#9FDDFF" stroke-width="5"/><path d="M2.988 35V9.8h10.908c2.256 0 4.2.372 5.832 1.116 1.632.72 2.892 1.764 3.78 3.132.888 1.368 1.332 3 1.332 4.896 0 1.872-.444 3.492-1.332 4.86-.888 1.344-2.148 2.376-3.78 3.096-1.632.72-3.576 1.08-5.832 1.08H6.228l2.592-2.556V35H2.988Zm16.02 0-6.3-9.144h6.228L25.308 35h-6.3ZM8.82 26.072l-2.592-2.736h7.344c1.8 0 3.144-.384 4.032-1.152.888-.792 1.332-1.872 1.332-3.24 0-1.392-.444-2.472-1.332-3.24-.888-.768-2.232-1.152-4.032-1.152H6.228L8.82 11.78v14.292Zm60.723 9.216c-1.632 0-3.06-.36-4.284-1.08-1.224-.72-2.184-1.812-2.88-3.276-.672-1.488-1.008-3.36-1.008-5.616 0-2.28.324-4.152.972-5.616.648-1.464 1.584-2.556 2.808-3.276 1.224-.72 2.688-1.08 4.392-1.08 1.824 0 3.456.42 4.896 1.26 1.464.816 2.616 1.968 3.456 3.456.864 1.488 1.296 3.24 1.296 5.256 0 2.04-.432 3.804-1.296 5.292-.84 1.488-1.992 2.64-3.456 3.456-1.44.816-3.072 1.224-4.896 1.224Zm-11.448 6.696V15.632h5.364v3.96l-.108 5.76.36 5.724v10.908h-5.616ZM68.571 30.68c.936 0 1.764-.216 2.484-.648a4.643 4.643 0 0 0 1.764-1.836c.456-.816.684-1.776.684-2.88 0-1.128-.228-2.088-.684-2.88a4.643 4.643 0 0 0-1.764-1.836c-.72-.432-1.548-.648-2.484-.648-.936 0-1.776.216-2.52.648a4.643 4.643 0 0 0-1.764 1.836c-.432.792-.648 1.752-.648 2.88 0 1.104.216 2.064.648 2.88a4.643 4.643 0 0 0 1.764 1.836c.744.432 1.584.648 2.52.648Zm23.992 4.608c-2.208 0-4.152-.432-5.832-1.296-1.656-.864-2.94-2.04-3.852-3.528-.912-1.512-1.368-3.228-1.368-5.148 0-1.944.444-3.66 1.332-5.148a9.529 9.529 0 0 1 3.708-3.528c1.56-.864 3.324-1.296 5.292-1.296 1.896 0 3.6.408 5.112 1.224a8.846 8.846 0 0 1 3.636 3.456c.888 1.488 1.332 3.276 1.332 5.364 0 .216-.012.468-.036.756-.024.264-.048.516-.072.756H86.083v-3.276h12.78l-2.16.972c0-1.008-.204-1.884-.612-2.628a4.342 4.342 0 0 0-1.692-1.728c-.72-.432-1.56-.648-2.52-.648s-1.812.216-2.556.648a4.286 4.286 0 0 0-1.692 1.764c-.408.744-.612 1.632-.612 2.664v.864c0 1.056.228 1.992.684 2.808a4.872 4.872 0 0 0 1.98 1.836c.864.408 1.872.612 3.024.612 1.032 0 1.932-.156 2.7-.468a6.566 6.566 0 0 0 2.16-1.404l2.988 3.24c-.888 1.008-2.004 1.788-3.348 2.34-1.344.528-2.892.792-4.644.792ZM117.014 35v-3.78l-.36-.828v-6.768c0-1.2-.372-2.136-1.116-2.808-.72-.672-1.836-1.008-3.348-1.008a9.62 9.62 0 0 0-3.06.504c-.984.312-1.824.744-2.52 1.296l-2.016-3.924c1.056-.744 2.328-1.32 3.816-1.728 1.488-.408 3-.612 4.536-.612 2.952 0 5.244.696 6.876 2.088 1.632 1.392 2.448 3.564 2.448 6.516V35h-5.256Zm-5.904.288c-1.512 0-2.808-.252-3.888-.756-1.08-.528-1.908-1.236-2.484-2.124-.576-.888-.864-1.884-.864-2.988 0-1.152.276-2.16.828-3.024.576-.864 1.476-1.536 2.7-2.016 1.224-.504 2.82-.756 4.788-.756h5.148V26.9h-4.536c-1.32 0-2.232.216-2.736.648-.48.432-.72.972-.72 1.62 0 .72.276 1.296.828 1.728.576.408 1.356.612 2.34.612.936 0 1.776-.216 2.52-.648.744-.456 1.284-1.116 1.62-1.98l.864 2.592c-.408 1.248-1.152 2.196-2.232 2.844-1.08.648-2.472.972-4.176.972Zm24.163 0c-2.28 0-4.056-.576-5.328-1.728-1.272-1.176-1.908-2.916-1.908-5.22V11.348h5.616v16.92c0 .816.216 1.452.648 1.908.432.432 1.02.648 1.764.648.888 0 1.644-.24 2.268-.72l1.512 3.96c-.576.408-1.272.72-2.088.936-.792.192-1.62.288-2.484.288Zm-10.224-14.904v-4.32h13.428v4.32h-13.428Zm26.963 14.904c-2.208 0-4.152-.432-5.832-1.296-1.656-.864-2.94-2.04-3.852-3.528-.912-1.512-1.368-3.228-1.368-5.148 0-1.944.444-3.66 1.332-5.148A9.529 9.529 0 0 1 146 16.64c1.56-.864 3.324-1.296 5.292-1.296 1.896 0 3.6.408 5.112 1.224a8.844 8.844 0 0 1 3.636 3.456c.888 1.488 1.332 3.276 1.332 5.364 0 .216-.012.468-.036.756-.024.264-.048.516-.072.756h-15.732v-3.276h12.78l-2.16.972c0-1.008-.204-1.884-.612-2.628a4.342 4.342 0 0 0-1.692-1.728c-.72-.432-1.56-.648-2.52-.648s-1.812.216-2.556.648a4.286 4.286 0 0 0-1.692 1.764c-.408.744-.612 1.632-.612 2.664v.864c0 1.056.228 1.992.684 2.808a4.872 4.872 0 0 0 1.98 1.836c.864.408 1.872.612 3.024.612 1.032 0 1.932-.156 2.7-.468a6.568 6.568 0 0 0 2.16-1.404l2.988 3.24c-.888 1.008-2.004 1.788-3.348 2.34-1.344.528-2.892.792-4.644.792ZM165.111 35V15.632h5.364v5.472l-.756-1.584c.576-1.368 1.5-2.4 2.772-3.096 1.272-.72 2.82-1.08 4.644-1.08v5.184a6.574 6.574 0 0 0-.648-.036 4.94 4.94 0 0 0-.612-.036c-1.536 0-2.784.444-3.744 1.332-.936.864-1.404 2.22-1.404 4.068V35h-5.616ZM40.796 16.712c2.208 0 4.152.432 5.832 1.296 1.656.864 2.94 2.04 3.852 3.528.912 1.512 1.368 3.228 1.368 5.148 0 1.944-.444 3.66-1.332 5.148a9.529 9.529 0 0 1-3.708 3.528c-1.56.864-3.324 1.296-5.292 1.296-1.896 0-3.6-.408-5.112-1.224a8.844 8.844 0 0 1-3.636-3.456c-.888-1.488-1.332-3.276-1.332-5.364 0-.216.012-.468.036-.756.024-.264.048-.516.072-.756h15.732v3.276h-12.78l2.16-.972c0 1.008.204 1.884.612 2.628.408.744.972 1.32 1.692 1.728.72.432 1.56.648 2.52.648s1.812-.216 2.556-.648a4.286 4.286 0 0 0 1.692-1.764c.408-.744.612-1.632.612-2.664v-.864c0-1.056-.228-1.992-.684-2.808a4.872 4.872 0 0 0-1.98-1.836c-.864-.408-1.872-.612-3.024-.612-1.032 0-1.932.156-2.7.468a6.568 6.568 0 0 0-2.16 1.404l-2.988-3.24c.888-1.008 2.004-1.788 3.348-2.34 1.344-.528 2.892-.792 4.644-.792Z" fill="#074D75"/></svg>