<svg width="69" height="155" fill="none" xmlns="http://www.w3.org/2000/svg"><path fill-rule="evenodd" clip-rule="evenodd" d="M29.79 66.895c-1.19-.261-2.184-1.414-3.03-2.397-.905-1.05-1.643-1.906-2.276-1.274-1.224 1.223-3.672 3.263-3.672 3.263s-2.946-2.619-3.673-4.895a3.97 3.97 0 0 1-.16-.932c-.031-.356-.06-.7-.248-1.107-.614-1.335-2.857-2.448-2.857-2.448l.409-2.04L0 38.343l.408-.816 15.099 17.132h1.224s.413-.614.816-.816c.57-.285 1.148-.415 1.632 0 .383.328.408 1.224.408 1.224h1.633l-1.633-14.684h.817l1.632 14.684h1.632s3.305-1.674 4.08-3.671c.162-.414.156-.788.151-1.15-.006-.431-.012-.847.258-1.298.404-.674 1.03-.815 1.69-.963.535-.121 1.094-.247 1.575-.668 1.267-1.112 1.59-2.3 1.974-3.715.136-.499.279-1.026.474-1.588.88-2.535 1.013-3.706 1.287-6.116.09-.79.194-1.711.345-2.858.612-4.648 1.572-7.024 6.121-10.197 0 0 2.04-1.224 2.857-2.04.34-.34-.358-.533-1.299-.793-1.313-.362-3.097-.855-3.19-2.062-.036-.467.05-.588.193-.789.165-.231.405-.568.623-1.658.22-1.094-.195-1.897-.538-2.563-.297-.574-.54-1.046-.278-1.516 1.537-1.671 2.169-2.66 2.856-4.487.29-.768.08-1.195-.121-1.607-.278-.568-.542-1.107.53-2.472C45.105.5 46.509.018 49.376 0c4.536.25 6.279 1.186 8.978 3.263 2.691 2.57 3.153 4.38 2.449 8.158-2.174 3.866-3.576 5.325-6.121 7.75 1.866 2.861 3.04 4.312 6.12 5.71 5.172 2.935 6.97 4.97 8.162 9.382.192 3.439-.405 4.58-1.31 6.31l-.322.624s.408 8.974-.408 14.277C66.108 60.776 62.843 62 62.843 62s-.105 2.241 0 3.671c.058.794-.052 1.069-.142 1.293-.185.462-.283.705 1.366 4.826 1.537 3.84.923 6.332.19 9.309-.434 1.765-.911 3.701-1.006 6.19-.151 3.965-.61 7.142-1.056 10.23-.562 3.883-1.102 7.625-.984 12.613.068 2.858.464 5.126.852 7.343.459 2.626.906 5.181.78 8.564-.113 3.042-.816 7.75-.816 7.75s.293 4.986 0 8.158c-.193 2.087-.816 5.303-.816 5.303s1.263 1.089 1.632 2.039c.645 1.661-.816 4.487-.816 4.487l-4.08.408h-8.57l-1.633.816h-7.753l-.816-.816-13.058.816s-3.673-1.224 0-2.039c3.672-.816 6.937-3.264 6.937-3.264v-1.631s.887-1.185.816-2.04c-.06-.71-.816-1.631-.816-1.631s2.18-6.868 2.448-11.421c.24-4.052-.639-7.011-1.561-10.119-.697-2.346-1.418-4.777-1.703-7.829-.755-8.076-.31-13.109.315-20.165.161-1.817.334-3.768.5-5.94.42-5.446 1.583-8.072 2.565-10.29.93-2.1 1.697-3.833 1.517-7.25-.12-2.249-.817-5.71-.817-5.71s-3.995 1.78-6.529 1.224Zm16.73 43.237s3.365 10.307 4.489 17.131c.382 2.319.493 4.821.592 7.029.11 2.453.203 4.543.632 5.616.816 2.039-2.856 7.342-2.856 7.342s-1.626-4.648-2.04-7.75c-.376-2.805-.047-4.919.299-7.141.259-1.662.527-3.386.517-5.504-.034-6.562-1.633-16.723-1.633-16.723ZM36.318 58.329l.408-2.855-2.448.816 2.04 2.039Z" fill="#9FDDFF" fill-opacity=".5"/></svg>