<svg width="57" height="160" fill="none" xmlns="http://www.w3.org/2000/svg"><path fill-rule="evenodd" clip-rule="evenodd" d="M45.409 24.91s-1.315-1.933-1.434-3.353c-.219-2.59.956-4.79 2.39-5.749 1.434-.958 1.753-4.1 1.434-6.706-.07-.573-.115-1.127-.159-1.661-.196-2.421-.36-4.434-2.71-6.004-2.867-1.916-7.169-1.916-9.559 0-2.114 1.695-2.358 3.015-2.717 4.954-.047.254-.096.518-.15.795-.335 1.673-.368 2.645-.405 3.733-.015.468-.032.959-.074 1.536-.056.782.41 2.041.885 3.324.69 1.862 1.398 3.773.55 4.34-1.435.959-2.39 2.396-2.39 2.396s-10.517 2.874-12.428 4.311c-1.24.932-2.588 7.41-4.094 14.655-.817 3.926-1.68 8.077-2.598 11.693 0 0-7.17 0-8.126.958C2.868 55.09 0 65.15 0 65.15h4.78L8.126 80l7.17 1.437s-5.736 22.994-4.78 31.617c.552 4.98.827 9.08 1.121 13.455.215 3.201.44 6.549.79 10.497.064.713.09 1.322.116 1.897.048 1.084.09 2.05.363 3.372.114.552.297.988.473 1.407.25.592.484 1.148.483 1.947-.003 2.544-1.75 3.754-3.735 5.13-.5.347-1.016.705-1.523 1.097-.998.773-2.56 1.146-3.935 1.475-1.811.433-3.3.789-2.757 1.879.712 1.426 1.689 1.26 2.733 1.081.358-.061.725-.123 1.09-.123.93 0 3.228-.369 5.797-.781 1.392-.223 2.864-.459 4.242-.656.719-.103 1.658-.113 2.632-.124 2.562-.027 5.362-.057 5.015-1.793-.478-2.395-.71-4.008-.478-7.185.164-2.247.478-5.749.478-5.749s-.478-11.018-1.434-20.599c-.715-7.169.176-8.169 1.47-9.623.436-.489.917-1.029 1.398-1.874 1.912-3.353 5.736-13.413 5.736-13.413s.814 8.766 1.434 14.372c.196 1.767.448 3.361.686 4.866.393 2.482.748 4.724.748 7.11 0 1.617-.34 4.345-.699 7.21-.49 3.921-1.011 8.097-.735 10.035.478 3.353-.956 5.27-2.39 6.707-.82.822-.564 2.147-.273 3.649.217 1.125.454 2.349.273 3.536-.13.852-.495 1.544-.841 2.201-.511.968-.981 1.859-.593 3.069.127.394.105.795.085 1.168-.052.944-.093 1.706 2.305 1.706 3.346 0 5.317-.38 6.692-2.874.595-1.08.375-2.051.145-3.068-.189-.834-.385-1.699-.145-2.681.217-.888.702-1.458 1.178-2.018.613-.72 1.212-1.425 1.212-2.772 0-.737.46-2.475 1.08-4.82 1.394-5.273 3.6-13.618 3.222-20.569a591.825 591.825 0 0 1-.478-10.06c-.32-7.96.74-15.33 2.39-20.12.877-2.548 1.902-3.605 2.67-4.397.677-.697 1.154-1.188 1.154-2.31 0-2.395-1.912-15.329-1.912-15.329s7.17-3.353 8.126-8.144c.955-4.79.956-13.413.956-13.413s.477-11.497-.478-13.413c-.957-1.916-10.994-9.102-10.994-9.102ZM23.42 57.485H7.17s1.434-2.874-1.434-2.874h13.383c6.214 0 4.302 2.874 4.302 2.874Zm2.39 22.036-17.207-.958-3.824-20.12s1.434 1.916 2.868 1.916h15.295l.956 6.707-4.78 1.916v.958l5.736-1.437.956 11.018Z" fill="#9FDDFF" fill-opacity=".5"/></svg>