<svg width="163" height="296" fill="none" xmlns="http://www.w3.org/2000/svg"><path fill-rule="evenodd" clip-rule="evenodd" d="m116.631 288.695.203-.058c4.698-1.338 6.37-1.815 9.505-6.168 1.849-2.568 2.773-7.609 2.773-7.609s-4.412-24.794-6.24-40.814c-2.976-26.071-3.467-67.101-3.467-67.101l-7.628-1.384-1.386-38.046s-9.708 0-13.868-2.767-2.08-5.535-2.08-5.535-12.481-6.917-18.029-11.759c-5.547-4.843-4.16 7.609-4.16 7.609l5.547 22.136s-.31 8.863 0 14.527c.56 10.231 2.708 17.653 4.932 25.337 1.816 6.273 3.682 12.72 4.776 21.011 3.075 23.302 1.386 60.184 1.386 60.184l11.788 24.211 9.014 3.459-4.853 5.534-19.415-1.383H72.948l-.694-7.61.694-6.226 2.08-4.15s-2.774-11.76-8.321-37.355c-5.547-25.596-8.385-32.542-13.174-33.897-8.23-2.327-7.36 8.415-6.594 17.878.14 1.721.276 3.4.353 4.95.122 2.458.61 4.401 1.085 6.294.58 2.309 1.141 4.542.995 7.542-.096 1.964-.58 3.473-1.057 4.961-.525 1.638-1.042 3.249-1.023 5.415.038 4.327 2.168 7.086 4.362 9.929 2.035 2.637 4.125 5.345 4.652 9.44.693 5.386 0 13.836 0 13.836s1.654 7.058-.693 10.376c-1.82 2.574-3.787 4.407-6.934 4.151-3.25-.265-5.03-2.514-6.24-5.534-1.007-2.509 0-6.918 0-6.918s-5.548-2.075-6.241-5.534c-.166-.825-.48-2.21-.884-3.989-1.29-5.678-3.49-15.372-4.663-23.682-2.572-18.208-2.08-47.039-2.08-47.039s-3.187-2.485-5.548-3.459c-3.538-1.461-9.707-1.384-9.707-1.384v-39.43c0-3.951 1.127-4.176 2.298-4.409.675-.135 1.364-.272 1.862-1.125 5.056-8.668 2.08-25.595 2.08-25.595S1.742 118.226.141 107.454c-.803-5.405 2.08-13.836 2.08-13.836S9.85 55.571 12.622 51.421c1.608-2.407 4.308-3.24 7.282-4.158 2.155-.665 4.454-1.375 6.586-2.76 4.36-2.832 10.401-8.3 10.401-8.3s1.145-2.025 1.387-3.46c.381-2.26-.742-3.704-1.962-5.273-.84-1.078-1.724-2.216-2.199-3.72a92.322 92.322 0 0 0-1.151-3.356c-1.782-4.98-3.331-9.31-.235-13.938C35.623 2.134 39.352.895 44.518.231c6.884-.885 15.255.691 16.642 6.225 1.387 5.535 1.994 9.282 1.387 15.22-.045.433-.087.869-.13 1.303-.389 3.998-.768 7.893-2.644 9.764-2.08 2.075-1.387 6.226-1.387 6.226s7.98 1.102 11.788 4.15c4.348 3.483 6.934 12.452 6.934 12.452l7.627 31.13 15.255 1.383 10.401 8.301s-.238-11.13 1.386-17.985c2.285-9.642 11.095-22.829 11.095-22.829s2.08-1.383 0-4.15c-1.033-1.373-1.225-2.57-1.405-3.685-.182-1.131-.35-2.177-1.369-3.233-.631-.654-1.46-.763-2.262-.868-1.12-.146-2.188-.286-2.592-1.899-.427-1.706-.812-3.07-1.233-4.564-.262-.928-.538-1.905-.847-3.045-.384-1.42-1.01-2.184-1.602-2.906-1.095-1.337-2.072-2.529-1.171-7.47 1.386-7.61 2.354-12.085 9.707-15.22 8.8-3.75 22.189 2.768 22.189 10.377 0 4.784-.823 8.201-1.606 11.455-.462 1.92-.91 3.785-1.168 5.84-.459 3.663.329 3.497 1.296 3.294.493-.103 1.033-.217 1.478.164.573.492 1.132.738 1.683.981.6.265 1.191.526 1.784 1.094 2.103 2.016 2.773 6.918 2.773 6.918s11.593 11.74 13.868 21.444c1.717 7.325-.525 12.696-2.937 18.478-1.667 3.993-3.415 8.181-3.997 13.343-2.034 18.043 1.387 39.892 3.204 51.496.46 2.936.817 5.216.957 6.612.693 6.918-9.015 6.918-9.015 6.918s-1.815 26.966-2.08 44.273c-.128 8.373-.16 13.071 0 21.444.138 7.206.595 12.894 1.046 18.508.497 6.189.987 12.288 1.034 20.231.005.694-.02 1.278-.044 1.832-.04.954-.077 1.82.044 3.01.192 1.887.788 3.253 1.391 4.633.564 1.294 1.135 2.6 1.383 4.36.121.86.376 1.854.632 2.849.698 2.723 1.399 5.452-.632 5.452H142.98l-10.401.692s-16.641 2.767-24.962 1.384c-6.39-1.063-2.147-2.941 1.108-4.383.983-.435 1.876-.83 2.359-1.151 1.04-.692 1.213-.692 1.734-.692.52 0 1.386 0 3.813-.692ZM23.717 95.002l-1.387 13.143s-5.882-4.69-4.854-8.3c.844-2.964 6.24-4.843 6.24-4.843Z" fill="#9FDDFF"/></svg>