<svg width="142" height="389" fill="none" xmlns="http://www.w3.org/2000/svg"><path fill-rule="evenodd" clip-rule="evenodd" d="m0 388.982 55.721-165.295c2.331-5.463 4.297-7.629 8.988-9.882 0 0-15.279-50.307-16.177-54.799-.9-4.491 3.595-6.288 5.392-2.695 1.797 3.594 26.962 78.156 26.962 78.156l10.785-10.78s-.754-10.446 0-17.069c.23-2.025.571-3.564.915-5.121.319-1.438.64-2.892.882-4.76.897-6.928.637-11.757.327-17.501-.125-2.332-.259-4.816-.327-7.653-.066-2.777.658-5.451 1.343-7.983 1.307-4.829 2.475-9.143-2.241-12.679-7.19-5.39-21.57-22.458-21.57-22.458-2.329-3.321-3.038-5.254-1.797-8.984 0 0 8.987-20.662 13.48-27.848 4.494-7.187 2.697-17.967 2.697-17.967s-.946-5.073 0-8.085c1.051-3.347 5.392-7.187 5.392-7.187L88.975 53.9c.035-4.123 2.38-6.385 8.987-12.576V0h1.797v41.324c7.226 4.183 9.64 7.545 12.583 14.373 10.356 11.516 17.076 29.645 17.974 33.239.426 1.7.851 2.194 1.467 2.908.685.795 1.607 1.864 3.027 5.177 2.696 6.288 4.494 13.475 4.494 13.475L142 132.954l-1.797 15.272s-4.499 12.42-6.292 20.662c-3.14 14.435-2.696 37.73-2.696 37.73-1.806 14.159-4.792 20.015-12.582 27.849 0 0 2.38 21.95 4.494 35.934 1.401 9.266 2.333 12.211 3.312 15.304.846 2.675 1.728 5.461 2.979 12.544 1.97 11.16.942 16.942.333 20.372-.225 1.264-.393 2.208-.333 2.985.082 1.063.5 1.837.912 2.6.446.825.885 1.637.885 2.79 0 1.164-.438 1.982-.884 2.815-.404.756-.816 1.524-.913 2.575-.34 3.647 2.696 8.984 2.696 8.984s1.797 6.288 0 7.186c-1.798.899-10.785 1.797-10.785 1.797l-.899 6.288s4.494 11.679 8.988 22.459c4.493 10.78-6.291 9.882-6.291 9.882l-8.089-22.459H21.57l-7.19 22.459h-2.697l6.292-22.459h-6.292l-8.088 22.459H0ZM94.367 76.359l-3.595-1.797 3.595 4.492v-2.695Zm6.291-17.967 7.19.898c7.582 13.214 10.6 20.9 14.38 35.036l-1.798 4.492s-2.696-2.695-7.189-1.797c-4.494.898-9.887 3.593-10.785 14.373-.58 6.958 1.753 9.379 3.291 10.975.846.877 1.451 1.505 1.202 2.5-.246.987-.209 2.167-.173 3.284.066 2.061.125 3.903-1.624 3.903-2.696 0-10.785-.898-10.785-.898-1.75-2.456-4.145-4.312-6.352-6.022-1.3-1.006-2.535-1.963-3.534-2.962-2.696-2.695-2.189-7.737-.899-14.373l8.089-18.865s2.542-2.507 3.595-4.492c.727-1.37.873-2.57 1.023-3.799.13-1.063.262-2.148.774-3.388.737-1.782 1.951-2.923 3.124-4.025 1.431-1.345 2.801-2.633 3.167-4.958.623-3.951-2.696-9.882-2.696-9.882ZM62.911 229.077 57.52 248.84h17.975l-7.19-25.153c-2.962.783-4.083 2.055-5.393 5.39Zm-8.987 28.747H79.09l8.088 25.153h-3.595l2.697 2.695 2.696 1.797 5.392 17.069-2.696 2.695s-6.115 1.03-8.089 3.593l-.132.171-.161.208c-.434.556-.624.801-.695 1.077-.055.216-.035.452 0 .872.036.447.09 1.102.09 2.164 0 1.463 2.087 1.138 4.744.725 3.866-.602 8.936-1.391 10.534 2.868.953 2.54 2.467 5.528 3.947 8.45 2.708 5.346 5.304 10.469 4.142 12.212-1.206 1.808-3.625 1.999-6.172 2.2-1.25.098-2.531.199-3.714.495-3.595.898-6.292 7.187-2.697 8.085 3.595.898 17.076 0 17.076 0v2.695h-1.797v1.797h1.797l.899 3.593H24.266l29.658-100.614Zm-25.165 70.07 21.57-70.07h-2.696l-21.57 70.07h2.697Zm81.785-8.983-1.797 5.39-1.798-3.593 3.595-1.797Zm-91.67 42.222 8.987-28.747h-3.595l-9.886 28.747h4.493Z" fill="#9FDDFF"/></svg>