<svg width="128" height="437" fill="none" xmlns="http://www.w3.org/2000/svg"><path d="M32.364 411.667c-9.144 10.064-14.251 14.608-23.262 20.585-2.994 1.81-4.418 2.06-6.462 1.287-1.93-.629-2.55-1.423-1.292-5.147l7.108-14.152c1.677-7.939 3.712-12.459 8.4-20.585l-2.585-4.503-1.938-5.79 1.292-7.076c.765-3.5-2.585-4.503-2.585-7.076 0-2.573-5.17-48.89-5.17-48.89l-4.522-10.293 2.584-6.432L5.225 269.5l1.292-20.585v-5.146l7.108-19.299S1.472 218.546 2.64 212.248c.41-2.21 1.786-3.045 2.585-5.147.65-1.71.111-3.101 1.292-4.503.946-1.122 3.23-1.93 3.23-1.93-1.901-17.09-4.794-26.908-9.692-44.386-.179-2.829-.065-4.494 2.585-8.363l12.924-13.509s8.4-8.363 5.815-14.152c-2.584-5.79-3.877-11.58-3.877-11.58-2.727-2.527-4.523-7.076-5.17-10.292-.645-3.217.17-3.053.647-5.147.782-3.43 0-9.006 0-9.006l2.585-5.146s.27-4.742 1.938-7.076c2.915-4.079 7.256-3.6 12.278-3.86 6.855-.354 12.17.102 16.8 5.147 3.13 3.409 4.524 10.935 4.524 10.935s.971 1.902 1.292 3.217c.537 2.197.695 3.637 0 5.79-.345 1.069-1.292 2.573-1.292 2.573v4.503s8.4.643 10.339-1.93c1.938-2.573.583-8.74 1.938-14.153.966-3.854 3.231-9.649 3.231-9.649s1.293-3.86 2.585-10.293c1.292-6.432-1.292-6.432-3.23-19.298-1.94-12.866.645-11.58.645-11.58.361-5.093.166-7.929-3.23-12.865 0 0-4.524-2.573-10.34-3.86-5.815-1.286-2.845-4.885-3.23-8.363-.166-1.498-4.524-2.573 0-3.86C54.335 3.18 56.672.21 61.442.607c3.831.318 4.524-3.216 9.047 3.86 4.524 7.076 8.4 16.082 8.4 16.082l2.586 10.936h5.17s1.938 24.445 4.522 40.527c2.585 16.082-7.754 50.176-7.754 50.176s-1.292 9.65 1.293 15.439c2.584 5.79 31.602 23.855 43.294 43.744l-22.617 21.228-4.523 15.439-7.108-2.573s4.812 7.55 4.523 12.866c-.25 4.612-3.244 6.496-4.523 10.936-1.2 4.168-1.022 6.696-1.938 10.936-2.688 12.426-10.34 30.877-10.34 30.877s-2.61 9.275 0 14.153c1.262 2.357 3.356 2.742 4.524 5.146 1.013 2.085.225 3.732 1.292 5.79.905 1.743 2.327 2.116 3.231 3.859 1.068 2.058 1.293 5.79 1.293 5.79s3.877 3.86 6.461 16.725c2.585 12.866 1.801 22.904 5.17 36.668l2.585 14.152v6.433c3.96 3.831 5.881 6.083 5.169 11.579-6.925 10.536-1.292 17.369-9.046 25.732-7.755 8.362-9.352 7.507-16.155 9.649-7.929.91-10.38-.466-9.047-8.363l5.816-13.509.646-17.369-4.523-6.432c-.846-2.796-.647-4.71 2.585-9.65l-5.816-8.362-1.939-9.006s-8.4-30.878-9.046-34.738c-.646-3.86-6.754-4.871-10.34-11.579L47.227 288.8l-5.17 6.433s-2.677 7.869-4.523 12.866c-.744 2.014-1.792 3.004-1.939 5.146-.246 3.588 3.33 4.807 3.877 8.363.46 2.99-.646 7.719-.646 7.719l.646 7.719-1.938 34.095c3.37 5 4.282 7.719 1.938 12.222l4.524 8.363c3.256 3.007 3.101 4.531.646 7.076l-7.108 7.076-3.231 1.287-1.938 4.503Z" fill="#074D75"/></svg>