<svg width="156" height="294" fill="none" xmlns="http://www.w3.org/2000/svg"><path d="m103.495 288.426 8.536-5.355s-14.844 3.078-16.005-3.213c-.227-1.234 0-3.213 0-3.213l11.07-2.142 6.002-3.213-1.067-9.64-5.335-19.278-1.067-20.35-2.134-22.492-4.268-36.415h-5.335v19.279l-1.066 10.71 2.133 22.492v32.131s1.175 4.541 1.067 7.497c-.125 3.447-1.156 5.262-2.134 8.568-.75 2.536-1.862 3.795-2.133 6.427-.304 2.942 2.226 2.636 1.067 5.355-1.713 4.014-5.335 5.355-10.67 5.355s-5.356-1.457-6.402-4.284c-1.056-2.855 2.134-7.497 2.134-7.497l-1.067-3.214s-4.333-5.452-5.335-9.639c-1.172-4.897 3.294-6.368 1.067-17.136-2.226-10.769-3.491-12.52-3.2-23.563-2.671-11.661-4.59-16.966-8.536-24.634l1.067 22.492v24.634c0 9.62-1.674 9.155-1.067 14.994.398 3.835 1.932 5.788 2.134 9.639.198 3.783-1.067 9.64-1.067 9.64l-9.603 2.142c-.983-1.118-1.662-1.605-4.268-1.071l-3.2 2.142-16.005 1.071c-3.17.088-4.268-4.284 0-6.426 4.268-2.142 9.602-5.356 9.602-5.356l2.135-4.284s-1.742-4.618-1.068-7.497c.427-1.821 3.477-.314 2.134-10.71-1.342-10.397-1.107-8.526-1.066-17.137-2.05-13.984-2.432-21.978-2.135-36.415 0 0-3.302-27.436-2.133-44.984.644-9.68 3.2-24.634 3.2-24.634l-4.267-2.142c-5.551-4.396-8.454-7.239-12.804-13.923l-8.535-5.355L0 64.579l12.803 1.072 13.871 31.06h7.469l3.2-10.71v-8.569l-2.133-1.071-4.268 3.213-2.134-1.071 6.402-5.355 6.401-4.284c3.353-10.583 6.774-15.251 18.139-19.279l3.2-5.355v-5.355c-4.514-4.317-6.796-8.174-10.669-16.066h-2.134v-2.142l2.134-1.071s-.381-9.656 3.2-13.924c4.69-5.586 11.43-7.113 18.14-4.284 5.761 2.43 9.602 12.853 9.602 12.853h3.2v2.142l-2.133 1.07c.526 8.358.53 13.058 0 21.422l4.268 5.355c6.995 3.154 10.217 5.258 14.937 9.64 2.218 3.157 3.031 5.215 4.268 9.639 2.111-4.651 3.86-7.046 8.536-10.71 0 0-4.319-1.343-6.402-3.214-2.504-2.248-4.268-7.497-4.268-7.497s-1.864 4.065-2.134 1.07c-.27-2.994-1.067-7.496 0-9.639 1.067-2.142-3.201-5.355-3.201-5.355h-6.402l-1.066-1.07 6.401-4.285c-.302-3.123 1.067-21.42 18.139-21.42 17.071 0 20.272 24.633 20.272 24.633l3.201 4.284-7.469 3.213v8.569l5.335 3.213 1.067 7.497s14.385 14.69 16.004 26.776c1.362 10.162-3.872 15.557-5.335 25.705-1.973 13.685-.548 21.608-2.134 35.344-.97 8.403-2.347 13.005-3.201 21.421-1.182 11.659 1.225 18.498-1.066 29.989-.675 3.382-1.721 5.144-2.134 8.568-.809 6.696 2.134 17.137 2.134 17.137s2.215 7.106 2.133 11.781c-.074 4.265-1.724 6.465-2.133 10.711-.644 6.674 1.042 10.431 1.066 17.136.026 7.123-1.066 18.208-1.066 18.208s3.2 10.71 1.066 13.923c-2.133 3.214-9.602 3.213-9.602 3.213l-6.402-1.071s-14.937 3.213-20.272 2.142c-5.335-1.071-5.335-5.355-5.335-5.355Z" fill="#9FDDFF"/></svg>