<svg width="113" height="162" fill="none" xmlns="http://www.w3.org/2000/svg"><path fill-rule="evenodd" clip-rule="evenodd" d="m77.808 33.46 2.102-2.104s-3.28-4.167-3.855-7.36c-.18-1.007-.107-1.795-.032-2.6.066-.703.132-1.42.032-2.307-.12-1.063-.412-1.872-.7-2.669-.32-.884-.634-1.753-.702-2.939-.166-2.92.17-4.706 1.402-7.36.287-.618.534-1.316.781-2.013.844-2.383 1.685-4.759 4.126-3.945 1.353.451 2.522.53 3.633.605 1.48.1 2.856.192 4.428 1.147 3.089 1.876 4.272 4.003 5.608 7.36a17.214 17.214 0 0 1 1.051 8.763c-.197 1.381-.84 2.027-1.488 2.68-.503.506-1.01 1.016-1.316 1.876-.693 1.952-.7 5.257-.7 5.257s1.607.443 2.453 1.052c1.449 1.042 2.453 3.855 2.453 3.855l11.566 5.608c2.115 1.355 2.547 2.73 2.804 5.608v8.06l-1.051 4.207-1.753 5.257c2.987 2.679 3.792 4.927 4.206 9.813-1.111 8.902-2.032 13.37-4.206 20.328-2.795 11.551-5.684 15.242-11.215 21.03-4.972 3.767-8.198 4.422-14.37 4.205l-7.01 2.103v2.454l-4.206 1.752v1.753h.701v13.668l16.123-.35 2.453.35.701 3.155 19.277 2.804v4.907h-.701s.766 1.459.701 2.453c-.141 2.133-2.056 3.094-4.206 3.505-2.441-.067-3.362-.652-3.855-3.155.226-1.806.809-2.632 2.453-3.855l-13.669-1.752c-1.524 1.406-2.458 2.019-4.556 2.103-2.18-.354-3.026-1.07-4.206-2.804l-5.958-1.052-1.052-.35H72.55l1.402 3.154v4.556l.35 4.557c-1.015 1.518-2.38 2.303-4.205 2.103-2.317-.255-3.79-1.343-3.855-4.557 1.144-1.991 2.1-2.599 4.556-2.453l-.701-3.154-3.505-.351-.35-3.855-12.267.35-1.052 1.052 2.103 9.463s1.752 3.855.701 4.556c-1.051.701-4.907 1.052-4.907 1.052l-1.051-1.052h-1.402c-4.5 1.499-6.768 1.825-10.515 1.752-5.49-.626-8.177-1.174-12.267-2.453v-1.051l-2.803-1.402-4.206.701c-7.226.339-11.286.066-18.576-2.103v-1.402l1.402-.701v-1.052l3.505-1.051 4.907-1.051 6.659-6.66 3.154-2.453.701-3.154-9.463-5.608c-1.045-.58-1.417-1.032-1.051-2.454.383-1.683.746-3.264 1.092-4.774 2.383-10.388 4.01-17.481 6.618-32.377.552-5.108 1.474-7.193 4.206-9.463l3.505-1.402h-5.958c-1.459-.129-2.053-.559-2.454-2.453l-4.206-26.637c-.2-1.59.087-2.197 1.753-2.454l36.45 2.454c1.678.05 2.064.488 2.103 1.752l.35 4.556h1.403s-.22-1.73 0-2.803c.31-1.509 1.293-2.78 2.275-4.049.572-.739 1.143-1.477 1.58-2.26 1.602-2.874 2.453-6.66 2.453-6.66 1.309-2.82 2.224-4.328 5.608-6.308l11.216-3.505Zm-35.049 78.508-7.36-4.907s-.35 1.402-.701 3.855c-.12.841-.405 1.476-.756 2.258-.672 1.5-1.587 3.54-2.048 8.607-.7 7.711-.7 13.669-.7 13.669l-.702 3.505-.7 3.154 11.215-.701c.334-2.806.782-5.383 1.208-7.836.541-3.121 1.049-6.043 1.245-8.987.35-5.257-.7-12.617-.7-12.617Zm18.225 8.762-1.402 5.257c1.08 1.7 1.93 1.785 3.505 1.753h3.155v11.215l-11.216-1.051v-3.505s1.297-1.368 1.752-2.454c.422-1.004.25-1.864.073-2.746-.157-.78-.316-1.579-.072-2.511.72-2.755 4.205-5.958 4.205-5.958Zm-22.43 25.936-5.608.35.35 5.958c2.941-2.176 4.067-3.568 5.257-6.308Zm29.09-24.534v2.804l-1.052-2.804h1.052Z" fill="#9FDDFF" fill-opacity=".5"/></svg>