<svg width="78" height="183" fill="none" xmlns="http://www.w3.org/2000/svg"><path fill-rule="evenodd" clip-rule="evenodd" d="M64.834 176.872c-.337 1.345-1.012 2.017-3.038 2.353-2.025.336-13.84-2.353-13.84-2.353s-4.39 0-7.428-.672c-3.038-.672-1.687-1.008-1.687-1.008v-2.017l1.35-4.705.337-2.016-.337-7.73s-2.535-13.872-3.376-22.854c-.126-1.341-.024-2.376.073-3.363.168-1.71.322-3.276-.748-6.047-1.688-4.369-3.038-10.418-3.038-10.418l-4.389 18.82-1.35 18.821-1.35 8.402v7.057l-1.35 1.681s.337 3.024.674 7.393c.325 4.204-1.975 4.449-4.134 4.678l-.254.028c-2.823.308-4.665-.236-6.077-2.689-1.466-2.546.675-7.394.675-7.394l.676-3.025-2.363-1.008v-6.049s-.976-14.39 0-23.526c.091-.859.185-1.623.273-2.338.275-2.251.492-4.019.402-6.736-.029-.861 0-1.551.026-2.219.036-.87.07-1.702-.026-2.822-.302-3.531 0-9.074 0-9.074s-.666-5.558-1.35-9.074c-.41-2.105-.877-3.719-1.343-5.328-.475-1.642-.948-3.28-1.358-5.427-.128-.67-.252-1.288-.369-1.873-.541-2.712-.941-4.714-.982-7.873-.047-3.696 1.013-9.41 1.013-9.41s-1.126-2.421-1.688-4.034c-.202-.58-.343-1.176-.498-1.828-.358-1.511-.787-3.318-2.202-5.901-2.026-3.697-3.376-10.755-3.376-10.755S-.246 47.453.019 42.776c.207-3.655.428-5.961 2.363-9.074 2.484-3.996 9.79-7.058 9.79-7.058l1.35-3.36s.675.336 1.688-1.68c.577-1.15.168-2.734-.353-4.754-.394-1.527-.852-3.304-.997-5.33-.313-4.351.207-5.196 1.12-6.68l.23-.377C17.428.783 21.05-.36 25.337.094c3.54.375 6.506 3.405 8.03 4.961.15.155.288.295.41.416 1.35 1.345 0 3.361 0 3.361l1.35 5.377-1.35 3.025s0 1.68.337 3.361c.338 1.68-1.35 2.017-1.35 2.017l-.675 3.024-1.35 2.353s3.958 1.434 6.076 3.024c4.99 3.748 7.427 14.116 7.427 14.116l4.726 1.008c1.846.394 6.979.926 11.478 1.008 1.186.022 3.038 0 3.038 0l6.077-18.148L78 28.661 72.261 48.49s-3.76 2.548-6.414 3.697c-1.415.612-3.713 1.344-3.713 1.344s-5.976 3.447-8.102 7.058c-.11.187-.166.363-.223.543-.175.55-.359 1.132-2.14 2.145-2.363 1.344-7.09 2.689-7.09 2.689v6.05l1.013 4.368 5.74 18.82.674 26.551-.337 20.165v15.796l-1.013 4.369 1.013 3.696-1.013 1.345s4.347 4.617 7.764 6.721c.993.612 2.348 1.006 3.558 1.359 1.663.484 3.052.888 2.856 1.666ZM50.318 51.85c-1.563.833-3.038 3.361-3.038 3.361s3.716.618 5.401-.672c1.22-.933 2.026-3.36 2.026-3.36s-2.86-.143-4.389.671Z" fill="#9FDDFF"/></svg>