<svg xmlns="http://www.w3.org/2000/svg" viewBox="0 0 122.88 122.88" style="enable-background:new 0 0 122.88 122.88" xml:space="preserve"><path d="M111.74 0H11.14C4.99 0 0 4.99 0 11.14v100.6c0 6.15 4.99 11.14 11.14 11.14h100.6c6.15 0 11.14-4.99 11.14-11.14V11.14c0-6.15-4.99-11.14-11.14-11.14zM48.57 31.26c0 4.2-3.42 7.4-7.51 7.4-4.08 0-7.51-3.2-7.51-7.4 0-4.19 3.42-7.39 7.51-7.39s7.51 3.2 7.51 7.39zm3.42 14.24h18.88l-2.43 11.1c3.31-6.18 9.94-12.06 16.45-12.06 6.95 0 12.69 4.95 12.69 14.45 0 2.43-.33 5.07-1.21 8.05l-3.53 12.69c-.33 1.33-.55 2.43-.55 3.42 0 2.21.88 3.31 2.54 3.31 1.66 0 3.75-1.22 6.18-7.95l4.86 1.87C103 90.43 97.81 94.62 91.3 94.62c-7.62 0-11.26-4.52-11.26-10.71 0-1.76.22-3.64.77-5.52l3.64-13.03c.44-1.44.55-2.76.55-3.97 0-4.19-2.54-6.73-6.62-6.73-5.19 0-8.61 3.72-10.38 10.9L60.93 93.9H48.57l2.22-8.9c-3.63 5.97-8.68 9.67-14.91 9.67-7.51 0-11.04-4.32-11.04-10.84 0-1.65.22-3.68.66-5.56l5.63-23h-8.72l2.65-9.77h20.97l-8.28 32.84c-.55 2.1-.77 3.84-.77 5.05 0 2.1 1.03 2.71 2.65 3.08.98.22 8.83.07 13.1-9.43l5.44-21.77h-8.83l2.65-9.77z" style="fill:#dc395f"/></svg>