<svg width="300" height="300" fill="none" xmlns="http://www.w3.org/2000/svg"><g clip-path="url(#a)"><mask id="b" style="mask-type:alpha" maskUnits="userSpaceOnUse" x="0" y="0" width="300" height="300"><path d="M150 300c82.843 0 150-67.157 150-150S232.843 0 150 0 0 67.157 0 150s67.157 150 150 150Z" fill="#D9D9D9"/></mask><g mask="url(#b)" fill="#000"><path d="M104.51 67.45a3.51 3.51 0 1 0 0-7.02 3.51 3.51 0 0 0 0 7.02Zm0 226a3.51 3.51 0 1 0 .001-7.019 3.51 3.51 0 0 0-.001 7.019Zm121-226a3.51 3.51 0 1 0 0-7.02 3.51 3.51 0 0 0 0 7.02Zm0 226a3.51 3.51 0 1 0 .001-7.019 3.51 3.51 0 0 0-.001 7.019ZM13.7 67.45a3.51 3.51 0 1 0 0-7.02 3.51 3.51 0 0 0 0 7.02Zm0 226a3.51 3.51 0 1 0 0-7.02 3.51 3.51 0 0 0 0 7.02Zm121-226a3.51 3.51 0 1 0 0-7.02 3.51 3.51 0 0 0 0 7.02Zm0 226a3.51 3.51 0 1 0 0-7.02 3.51 3.51 0 0 0 0 7.02Zm121-226a3.51 3.51 0 1 0 0-7.02 3.51 3.51 0 0 0 0 7.02Zm0 226a3.51 3.51 0 1 0 0-7.02 3.51 3.51 0 0 0 0 7.02Zm-211.82-226a3.51 3.51 0 1 0 0-7.02 3.51 3.51 0 0 0 0 7.02Zm0 226a3.51 3.51 0 1 0 0-7.02 3.51 3.51 0 0 0 0 7.02Zm121-226a3.51 3.51 0 1 0 0-7.02 3.51 3.51 0 0 0 0 7.02Zm0 226a3.51 3.51 0 1 0 .001-7.019 3.51 3.51 0 0 0-.001 7.019Zm121-226a3.51 3.51 0 1 0 0-7.02 3.51 3.51 0 0 0 0 7.02Zm0 226a3.51 3.51 0 1 0 .001-7.019 3.51 3.51 0 0 0-.001 7.019Zm-211.81-226a3.51 3.51 0 1 0 0-7.02 3.51 3.51 0 0 0 0 7.02Zm0 226a3.51 3.51 0 1 0 0-7.02 3.51 3.51 0 0 0 0 7.02Zm121-226a3.51 3.51 0 1 0 0-7.02 3.51 3.51 0 0 0 0 7.02Zm0 226a3.51 3.51 0 1 0 .001-7.019 3.51 3.51 0 0 0-.001 7.019ZM104.51 96.08a3.51 3.51 0 1 0 0-7.02 3.51 3.51 0 0 0 0 7.02Zm121 0a3.51 3.51 0 1 0 0-7.02 3.51 3.51 0 0 0 0 7.02Zm-211.81 0a3.51 3.51 0 1 0 0-7.02 3.51 3.51 0 0 0 0 7.02Zm121 0a3.51 3.51 0 1 0 0-7.02 3.51 3.51 0 0 0 0 7.02Zm121 0a3.51 3.51 0 1 0 0-7.02 3.51 3.51 0 0 0 0 7.02Zm-211.82 0a3.51 3.51 0 1 0 0-7.02 3.51 3.51 0 0 0 0 7.02Zm121 0a3.51 3.51 0 1 0 0-7.02 3.51 3.51 0 0 0 0 7.02Zm121 0a3.51 3.51 0 1 0 0-7.02 3.51 3.51 0 0 0 0 7.02Zm-211.81 0a3.51 3.51 0 1 0 0-7.02 3.51 3.51 0 0 0 0 7.02Zm121 0a3.51 3.51 0 1 0 0-7.02 3.51 3.51 0 0 0 0 7.02Zm-90.56 28.62a3.51 3.51 0 1 0 0-7.02 3.51 3.51 0 0 0 0 7.02Zm121 0a3.51 3.51 0 1 0 0-7.02 3.51 3.51 0 0 0 0 7.02Zm-211.81 0a3.51 3.51 0 1 0 0-7.02 3.51 3.51 0 0 0 0 7.02Zm121 0a3.51 3.51 0 1 0-.001-7.021 3.51 3.51 0 0 0 .001 7.021Zm121 0a3.51 3.51 0 1 0-.001-7.021 3.51 3.51 0 0 0 .001 7.021Zm-211.82 0a3.51 3.51 0 1 0 0-7.02 3.51 3.51 0 0 0 0 7.02Zm121 0a3.51 3.51 0 1 0 0-7.02 3.51 3.51 0 0 0 0 7.02Zm121 0a3.51 3.51 0 1 0 0-7.02 3.51 3.51 0 0 0 0 7.02Zm-211.81 0a3.51 3.51 0 1 0 0-7.02 3.51 3.51 0 0 0 0 7.02Zm121 0a3.51 3.51 0 1 0 0-7.02 3.51 3.51 0 0 0 0 7.02Zm-90.56 28.63a3.51 3.51 0 1 0 .001-7.019 3.51 3.51 0 0 0-.001 7.019Zm121 0a3.51 3.51 0 1 0 .001-7.019 3.51 3.51 0 0 0-.001 7.019Zm-211.81 0a3.51 3.51 0 1 0 0-7.02 3.51 3.51 0 0 0 0 7.02Zm121 0a3.51 3.51 0 1 0 0-7.02 3.51 3.51 0 0 0 0 7.02Zm121 0a3.51 3.51 0 1 0 0-7.02 3.51 3.51 0 0 0 0 7.02Zm-211.82 0a3.51 3.51 0 1 0 0-7.02 3.51 3.51 0 0 0 0 7.02Zm121 0a3.51 3.51 0 1 0 .001-7.019 3.51 3.51 0 0 0-.001 7.019Zm121 0a3.51 3.51 0 1 0 .001-7.019 3.51 3.51 0 0 0-.001 7.019Zm-211.81 0a3.51 3.51 0 1 0 0-7.02 3.51 3.51 0 0 0 0 7.02Zm121 0a3.51 3.51 0 1 0 .001-7.019 3.51 3.51 0 0 0-.001 7.019Zm-90.56 28.69a3.51 3.51 0 1 0 .001-7.019 3.51 3.51 0 0 0-.001 7.019Zm121 0a3.51 3.51 0 1 0 .001-7.019 3.51 3.51 0 0 0-.001 7.019Zm-211.81 0a3.51 3.51 0 1 0 0-7.02 3.51 3.51 0 0 0 0 7.02Zm121 0a3.51 3.51 0 1 0 0-7.02 3.51 3.51 0 0 0 0 7.02Zm121 0a3.51 3.51 0 1 0 0-7.02 3.51 3.51 0 0 0 0 7.02Zm-211.82 0a3.51 3.51 0 1 0 0-7.02 3.51 3.51 0 0 0 0 7.02Zm121 0a3.51 3.51 0 1 0 .001-7.019 3.51 3.51 0 0 0-.001 7.019Zm121 0a3.51 3.51 0 1 0 .001-7.019 3.51 3.51 0 0 0-.001 7.019Zm-211.81 0a3.51 3.51 0 1 0 0-7.02 3.51 3.51 0 0 0 0 7.02Zm121 0a3.51 3.51 0 1 0 .001-7.019 3.51 3.51 0 0 0-.001 7.019Zm-90.56 28.63a3.51 3.51 0 1 0 .001-7.019 3.51 3.51 0 0 0-.001 7.019Zm121 0a3.51 3.51 0 1 0 .001-7.019 3.51 3.51 0 0 0-.001 7.019Zm-211.81 0a3.51 3.51 0 1 0 0-7.02 3.51 3.51 0 0 0 0 7.02Zm121 0a3.51 3.51 0 1 0 0-7.02 3.51 3.51 0 0 0 0 7.02Zm121 0a3.51 3.51 0 1 0 0-7.02 3.51 3.51 0 0 0 0 7.02Zm-211.82 0a3.51 3.51 0 1 0 0-7.02 3.51 3.51 0 0 0 0 7.02Zm121 0a3.51 3.51 0 1 0 .001-7.019 3.51 3.51 0 0 0-.001 7.019Zm121 0a3.51 3.51 0 1 0 .001-7.019 3.51 3.51 0 0 0-.001 7.019Zm-211.81 0a3.51 3.51 0 1 0 0-7.02 3.51 3.51 0 0 0 0 7.02Zm121 0a3.51 3.51 0 1 0 .001-7.019 3.51 3.51 0 0 0-.001 7.019ZM104.51 13.28a3.51 3.51 0 1 0 0-7.02 3.51 3.51 0 0 0 0 7.02Zm0 226a3.51 3.51 0 1 0 .001-7.019 3.51 3.51 0 0 0-.001 7.019Zm121-226a3.51 3.51 0 1 0 0-7.02 3.51 3.51 0 0 0 0 7.02Zm0 226a3.51 3.51 0 1 0 .001-7.019 3.51 3.51 0 0 0-.001 7.019ZM13.7 13.28a3.51 3.51 0 1 0 0-7.02 3.51 3.51 0 0 0 0 7.02Zm0 226a3.51 3.51 0 1 0 0-7.02 3.51 3.51 0 0 0 0 7.02Zm121-226a3.51 3.51 0 1 0 0-7.02 3.51 3.51 0 0 0 0 7.02Zm0 226a3.51 3.51 0 1 0 0-7.02 3.51 3.51 0 0 0 0 7.02Zm121-226a3.51 3.51 0 1 0 0-7.02 3.51 3.51 0 0 0 0 7.02Zm0 226a3.51 3.51 0 1 0 0-7.02 3.51 3.51 0 0 0 0 7.02Zm-211.82-226a3.51 3.51 0 1 0 0-7.02 3.51 3.51 0 0 0 0 7.02Zm0 226a3.51 3.51 0 1 0 0-7.02 3.51 3.51 0 0 0 0 7.02Zm121-226a3.51 3.51 0 1 0 0-7.02 3.51 3.51 0 0 0 0 7.02Zm0 226a3.51 3.51 0 1 0 .001-7.019 3.51 3.51 0 0 0-.001 7.019Zm121-226a3.51 3.51 0 1 0 0-7.02 3.51 3.51 0 0 0 0 7.02Zm0 226a3.51 3.51 0 1 0 .001-7.019 3.51 3.51 0 0 0-.001 7.019Zm-211.81-226a3.51 3.51 0 1 0 0-7.02 3.51 3.51 0 0 0 0 7.02Zm0 226a3.51 3.51 0 1 0 0-7.02 3.51 3.51 0 0 0 0 7.02Zm121-226a3.51 3.51 0 1 0 0-7.02 3.51 3.51 0 0 0 0 7.02Zm0 226a3.51 3.51 0 1 0 .001-7.019 3.51 3.51 0 0 0-.001 7.019ZM104.51 41.9a3.51 3.51 0 1 0 0-7.02 3.51 3.51 0 0 0 0 7.02Zm0 226a3.51 3.51 0 1 0 .001-7.019 3.51 3.51 0 0 0-.001 7.019Zm121-226a3.51 3.51 0 1 0 0-7.02 3.51 3.51 0 0 0 0 7.02Zm0 226a3.51 3.51 0 1 0 .001-7.019 3.51 3.51 0 0 0-.001 7.019ZM13.7 41.9a3.51 3.51 0 1 0 0-7.02 3.51 3.51 0 0 0 0 7.02Zm0 226a3.51 3.51 0 1 0 0-7.02 3.51 3.51 0 0 0 0 7.02Zm121-226a3.51 3.51 0 1 0 0-7.02 3.51 3.51 0 0 0 0 7.02Zm0 226a3.51 3.51 0 1 0 0-7.02 3.51 3.51 0 0 0 0 7.02Zm121-226a3.51 3.51 0 1 0 0-7.02 3.51 3.51 0 0 0 0 7.02Zm0 226a3.51 3.51 0 1 0 0-7.02 3.51 3.51 0 0 0 0 7.02ZM43.88 41.9a3.51 3.51 0 1 0 0-7.02 3.51 3.51 0 0 0 0 7.02Zm0 226a3.51 3.51 0 1 0 0-7.02 3.51 3.51 0 0 0 0 7.02Zm121-226a3.51 3.51 0 1 0 0-7.02 3.51 3.51 0 0 0 0 7.02Zm0 226a3.51 3.51 0 1 0 .001-7.019 3.51 3.51 0 0 0-.001 7.019Zm121-226a3.51 3.51 0 1 0 0-7.02 3.51 3.51 0 0 0 0 7.02Zm0 226a3.51 3.51 0 1 0 .001-7.019 3.51 3.51 0 0 0-.001 7.019ZM74.07 41.9a3.51 3.51 0 1 0 0-7.02 3.51 3.51 0 0 0 0 7.02Zm0 226a3.51 3.51 0 1 0 0-7.02 3.51 3.51 0 0 0 0 7.02Zm121-226a3.51 3.51 0 1 0 0-7.02 3.51 3.51 0 0 0 0 7.02Zm0 226a3.51 3.51 0 1 0 .001-7.019 3.51 3.51 0 0 0-.001 7.019Z"/></g></g><defs><clipPath id="a"><path fill="#fff" d="M0 0h300v300H0z"/></clipPath></defs></svg>