<svg width="187" height="62" fill="none" xmlns="http://www.w3.org/2000/svg"><path d="M46.208 30.218c-.04-3.528 3.075-5.248 3.225-5.325-1.763-2.412-4.496-2.746-5.453-2.771-2.296-.231-4.523 1.283-5.685 1.283-1.189 0-2.993-1.27-4.934-1.232a7.327 7.327 0 0 0-6.109 3.503c-2.637 4.299-.67 10.612 1.859 14.089 1.271 1.706 2.747 3.605 4.688 3.529 1.9-.077 2.61-1.13 4.892-1.13 2.269 0 2.925 1.13 4.907 1.091 2.036-.026 3.32-1.707 4.537-3.426 1.462-1.95 2.05-3.875 2.077-3.965-.068-.013-3.963-1.411-4.004-5.646Zm-3.731-10.38c1.025-1.194 1.722-2.823 1.517-4.479-1.476.065-3.32.963-4.387 2.13-.943 1.027-1.776 2.72-1.558 4.312 1.654.115 3.362-.783 4.428-1.963Zm27.689 19.157H63.7l-1.558 4.311H59.41l6.123-15.936h2.842l6.123 15.936H71.71l-1.544-4.311Zm-5.795-1.989h5.125l-2.528-6.993h-.069l-2.528 6.993Zm23.369.488c0 3.606-2.063 5.928-5.165 5.928-1.763 0-3.157-.744-3.895-2.027h-.055v5.748h-2.542V31.681h2.46v1.938h.041c.71-1.245 2.214-2.053 3.936-2.053 3.157 0 5.22 2.322 5.22 5.928Zm-2.61 0c0-2.348-1.298-3.9-3.266-3.9-1.94 0-3.252 1.578-3.252 3.9 0 2.335 1.312 3.914 3.252 3.914 1.968 0 3.266-1.54 3.266-3.914Zm16.223 0c0 3.606-2.063 5.928-5.166 5.928-1.763 0-3.157-.744-3.895-2.027h-.054v5.748h-2.529V31.681h2.46v1.938h.041c.71-1.245 2.214-2.053 3.936-2.053 3.144 0 5.207 2.322 5.207 5.928Zm-2.61 0c0-2.348-1.298-3.9-3.266-3.9-1.941 0-3.253 1.578-3.253 3.9 0 2.335 1.312 3.914 3.253 3.914 1.981 0 3.266-1.54 3.266-3.914Zm11.617 1.373c.191 1.578 1.817 2.617 4.059 2.617 2.145 0 3.676-1.04 3.676-2.464 0-1.231-.929-1.976-3.13-2.489l-2.2-.5c-3.116-.706-4.565-2.079-4.565-4.299 0-2.746 2.556-4.632 6.178-4.632 3.58 0 6.04 1.886 6.122 4.632h-2.569c-.15-1.59-1.558-2.553-3.594-2.553-2.037 0-3.444.975-3.444 2.387 0 1.129.888 1.783 3.075 2.296l1.872.437c3.485.77 4.934 2.091 4.934 4.414 0 2.977-2.529 4.85-6.547 4.85-3.758 0-6.3-1.822-6.464-4.71h2.597v.014Zm15.906-9.932v2.745h2.351v1.887h-2.351v6.403c0 1 .465 1.462 1.504 1.462.259 0 .669-.038.833-.05v1.873c-.287.064-.847.115-1.407.115-2.501 0-3.485-.885-3.485-3.13v-6.66h-1.804v-1.887h1.804v-2.758h2.555Zm3.705 8.558c0-3.657 2.296-5.953 5.863-5.953 3.581 0 5.863 2.296 5.863 5.953 0 3.67-2.269 5.954-5.863 5.954-3.581 0-5.863-2.284-5.863-5.954Zm9.157 0c0-2.502-1.23-3.99-3.28-3.99s-3.28 1.488-3.28 3.99c0 2.515 1.216 3.99 3.28 3.99 2.063 0 3.28-1.475 3.28-3.99Zm4.687-5.812h2.419v1.976h.055c.382-1.309 1.517-2.104 2.979-2.104.369 0 .67.051.875.09v2.232c-.205-.077-.643-.14-1.135-.14-1.64 0-2.651 1.038-2.651 2.668v6.89h-2.542V31.681Zm18.025 8.212c-.341 2.104-2.528 3.554-5.329 3.554-3.595 0-5.836-2.258-5.836-5.902 0-3.645 2.241-6.005 5.726-6.005 3.417 0 5.576 2.207 5.576 5.735v.821h-8.733v.142c0 1.988 1.326 3.284 3.335 3.284 1.408 0 2.515-.628 2.856-1.63h2.405Zm-8.582-3.477h6.191c-.055-1.784-1.271-2.952-3.034-2.952-1.749.013-3.02 1.206-3.157 2.952ZM64.056 15.372c2.42 0 3.84 1.399 3.84 3.798 0 2.451-1.407 3.85-3.84 3.85h-2.952v-7.648h2.952Zm-1.681 6.57h1.53c1.71 0 2.693-1.001 2.693-2.759 0-1.732-.998-2.733-2.692-2.733h-1.531v5.492Zm6.943-1.809c0-1.86 1.107-3.003 2.897-3.003 1.79 0 2.897 1.13 2.897 3.003 0 1.873-1.106 3.003-2.897 3.003-1.79 0-2.897-1.13-2.897-3.003Zm4.55 0c0-1.258-.6-1.989-1.653-1.989-1.052 0-1.654.732-1.654 1.989 0 1.258.588 1.989 1.654 1.989 1.066 0 1.654-.732 1.654-1.989Zm8.966 2.899h-1.257l-1.271-4.26h-.096l-1.271 4.26h-1.244l-1.694-5.774h1.23l1.107 4.414h.095l1.271-4.414h1.162l1.271 4.414h.096l1.093-4.414h1.216l-1.708 5.774Zm3.116-5.786h1.176v.924h.095c.301-.642.916-1.027 1.832-1.027 1.366 0 2.132.77 2.132 2.143v3.747h-1.217V19.58c0-.924-.423-1.386-1.325-1.386-.902 0-1.476.565-1.476 1.463v3.375H85.95v-5.787ZM93.112 15h1.216v8.032h-1.216V15Zm2.911 5.133c0-1.86 1.107-3.003 2.898-3.003 1.79 0 2.897 1.13 2.897 3.003 0 1.873-1.107 3.003-2.897 3.003-1.805 0-2.898-1.13-2.898-3.003Zm4.551 0c0-1.258-.601-1.989-1.653-1.989-1.053 0-1.654.732-1.654 1.989 0 1.258.588 1.989 1.654 1.989 1.052 0 1.653-.732 1.653-1.989Zm2.528 1.257c0-1.039.82-1.642 2.282-1.72l1.668-.089v-.5c0-.616-.424-.95-1.258-.95-.683 0-1.148.231-1.284.642h-1.176c.123-.988 1.121-1.63 2.515-1.63 1.544 0 2.419.719 2.419 1.938v3.952h-1.175v-.809h-.096c-.369.578-1.039.911-1.845.911-1.189-.012-2.05-.68-2.05-1.745Zm3.963-.487v-.488l-1.503.09c-.847.051-1.23.32-1.23.834 0 .526.478.821 1.134.821.916 0 1.599-.539 1.599-1.257Zm2.801-.77c0-1.822.998-2.977 2.556-2.977.847 0 1.558.372 1.886 1.013h.096V15h1.216v8.032h-1.175v-.91h-.096c-.369.628-1.08 1.013-1.927 1.013-1.572-.013-2.556-1.168-2.556-3.002Zm1.258 0c0 1.231.615 1.963 1.64 1.963s1.653-.744 1.653-1.963c0-1.207-.642-1.964-1.653-1.964-1.025.013-1.64.757-1.64 1.964Zm9.512 0c0-1.86 1.107-3.003 2.897-3.003 1.791 0 2.898 1.13 2.898 3.003 0 1.873-1.107 3.003-2.898 3.003-1.79 0-2.897-1.13-2.897-3.003Zm4.551 0c0-1.258-.601-1.989-1.654-1.989-1.052 0-1.653.732-1.653 1.989 0 1.258.587 1.989 1.653 1.989 1.053 0 1.654-.732 1.654-1.989Zm2.884-2.887h1.175v.924h.096c.3-.642.915-1.027 1.831-1.027 1.367 0 2.132.77 2.132 2.143v3.747h-1.216V19.58c0-.924-.424-1.386-1.326-1.386-.902 0-1.476.565-1.476 1.463v3.375h-1.216v-5.787Zm12.094-1.438v1.463h1.34v.962h-1.34v2.977c0 .603.26.873.875.873.191 0 .287-.013.465-.026v.95c-.192.025-.424.064-.656.064-1.353 0-1.886-.45-1.886-1.566v-3.259h-.971v-.962h.971v-1.476h1.202Zm2.98-.808h1.202v3.182h.096c.301-.641.943-1.04 1.872-1.04 1.312 0 2.119.784 2.119 2.157v3.733h-1.217v-3.451c0-.924-.451-1.386-1.312-1.386-.997 0-1.544.59-1.544 1.463v3.374h-1.216V15Zm12.381 6.467c-.273 1.04-1.257 1.668-2.665 1.668-1.762 0-2.842-1.129-2.842-2.977 0-1.847 1.107-3.015 2.842-3.015 1.709 0 2.747 1.104 2.747 2.913v.398h-4.345v.064c.041 1.014.669 1.655 1.639 1.655.738 0 1.244-.244 1.463-.706h1.161Zm-4.263-1.86h3.102c-.028-.911-.615-1.502-1.517-1.502-.902 0-1.517.604-1.585 1.502Z" fill="#fff"/><rect x="1" y="1" width="185" height="60" rx="8" stroke="#fff"/></svg>