<svg width="25" height="22" fill="none" xmlns="http://www.w3.org/2000/svg"><path d="M.5 5.5h24V14a2.5 2.5 0 0 1-2.5 2.5H3A2.5 2.5 0 0 1 .5 14V5.5Z" stroke="#074D75"/><rect x="2.5" y=".5" width="6" height="5" rx=".5" stroke="#074D75"/><path d="m8.5 2-6 1v2l6-1" stroke="#074D75"/><rect x="16.5" y=".5" width="6" height="5" rx=".5" stroke="#074D75"/><path d="m22.5 2-6 1v2l6-1" stroke="#074D75"/><rect x=".5" y="-.5" width="6" height="5" rx=".5" transform="matrix(1 0 0 -1 9 21)" stroke="#074D75"/><path d="m15.5 20-6-1v-2l6 1" stroke="#074D75"/></svg>