<svg width="28" height="27" fill="none" xmlns="http://www.w3.org/2000/svg"><path d="M13.188 7.746H8.311C5.876 7.746 6.018 8.534 6 11H3.5V2.19C3.5.603 1 .603 1 2.19V18h2.5v-4H6v10.5c0 1.587.688 1.5 1.5 1.5h5.688m0-18.254h6.5c2.437 0 2.295.788 2.312 3.254h2.5V2.19c0-1.587 2.5-1.587 2.5 0V18h-2.5v-4H22v10.5c0 1.587-.688 1.5-1.5 1.5h-7.312" stroke="#074D75"/><path d="M24.5 14v-3H22v3h2.5Zm-21 0v-3H6v3H3.5Zm4.813-.053c3.393-2.443 7.907-2.453 11.374 0m-9.749 2.529c2.474-1.68 5.771-1.695 8.124 0m-6.499 2.754c1.512-1.01 3.433-1.042 4.874 0" stroke="#074D75"/><ellipse cx="10.75" cy="22.032" rx=".813" ry=".794" fill="#074D75"/><ellipse cx="17.25" cy="22.032" rx=".813" ry=".794" fill="#074D75"/><ellipse cx="14" cy="22.032" rx=".813" ry=".794" fill="#074D75"/></svg>