<svg width="28" height="21" fill="none" xmlns="http://www.w3.org/2000/svg"><path d="M24.45 17.383c-1.02 0-1.02 2.047-.51 2.56m.001-1.024 3.06 1.023" stroke="#074D75"/><path d="M24.962 6.12C22.016 2.543 17.315 1 13.746 1c-3.569 0-7.647.512-9.177.512-1.53 0-1.02 2.048 0 2.048h3.06m17.333 2.56c.577 1.666.378 2.421-.51 3.583m.51-3.583c.274.34-.51 1.023-1.962 2.38m1.452 1.203c.827.738.866 1.327.51 2.56m-.51-2.56c-1.452 1.899-6.35 3.483-11.216 3.584-5.101-.1-7.715-.797-11.725-3.584m23.45 2.56c.596 1 .522 1.56 0 2.56-1.395 1.266-2.04 1.64-3.058 2.048m3.059-4.608c-5.072 3.09-7.537 3.525-11.726 3.584-4.712-.137-7.286-.83-11.725-3.584m20.392 4.608s1.53.512 2.549.512c1.02 0 .51 3.071-.51 2.56-1.02-.513-3.732-1.426-6.627-1.536m4.588-1.536c-1.48.818-2.549 1.11-4.588 1.536m0 0c-2.126.088 0 0-5.099 0-5.098 0-10.195-3.072-10.705-4.096-.51-1.024-.64-1.248 0-2.048m0 0c-.578-.96-.618-1.515 0-2.56m0 0c-.612-1.322-.668-2.006 0-3.071C3.46 4.799 4.904 4.278 7.628 3.56m0 0c5.981-.936 9.133-.565 14.274 1.536M23 8.5c-3.35-2.574-5.546-3.319-9.764-3.404C9.079 5.01 3.04 6.632 3.04 8.167c0 .267.184.516.51.745M23 8.5c-.74.691-1.045.812-1.727 1.059M3.55 8.912c3.145-1.329 5.853-2.056 9.687-1.769 3.267.246 5.56.628 8.037 2.416M3.55 8.912c.69.485 2.013.883 3.57 1.182m14.154-.535a18.812 18.812 0 0 1-3.449.915m-10.706-.38c1.938.372 4.237.59 6.118.633 1.756.04 3.207-.029 4.588-.253m-10.706-.38s3.569-.903 6.118-.903c2.549 0 4.588 1.283 4.588 1.283" stroke="#074D75"/><path d="M4.57 1.512c1.019.512 1.019 1.536 0 2.048m-.001-1.024C3.172 2.681 2.389 2.871 1 3.56" stroke="#074D75"/></svg>