<svg width="25" height="23" fill="none" xmlns="http://www.w3.org/2000/svg"><path d="M11.448 1h7.546c2.83 0 2.684 1.94 2.684 3.743v15.53c0 1.826-.798 1.726-1.741 1.726h-8.489" stroke="#074D75"/><path d="M24 4.894v-.301a1 1 0 0 0-1-1h-.322a1 1 0 0 0-1 1v.3a1 1 0 0 0 1 1H23a1 1 0 0 0 1-1Zm0 13.804v-.3a1 1 0 0 0-1-1h-.322a1 1 0 0 0-1 1v.3a1 1 0 0 0 1 1H23a1 1 0 0 0 1-1ZM13.552 1H6.006C3.178 1 3.323 2.94 3.323 4.743v15.53C3.322 22.1 4.12 22 5.063 22h8.489" stroke="#074D75"/><path d="M1 4.894v-.301a1 1 0 0 1 1-1h.322a1 1 0 0 1 1 1v.3a1 1 0 0 1-1 1H2a1 1 0 0 1-1-1Zm0 13.804v-.3a1 1 0 0 1 1-1h.322a1 1 0 0 1 1 1v.3a1 1 0 0 1-1 1H2a1 1 0 0 1-1-1ZM14.391 4.724c2.837 3.903 2.848 9.096 0 13.085M11.456 6.593c1.95 2.847 1.968 6.64 0 9.347M8.26 8.462c1.171 1.74 1.209 3.95 0 5.608" stroke="#074D75"/></svg>