<svg width="28" height="19" fill="none" xmlns="http://www.w3.org/2000/svg"><rect x="6.5" y="6.5" width="12" height="10" rx="1.5" stroke="#074D75"/><path d="M15.077 16.358c1.566 1.149 3.235 1.778 5.159 1.617 2.072-.174 4.762-2.425 4.762-2.425l-1.087.808.589 1.142S27 16 27 9.5s-3.5-8-3.5-8l-.585 1 1.554 1.195S21.488 1.009 19.177 1c-3.23-.013-5.993 2.55-6.573 5.658" stroke="#074D75"/><path d="M14.5 6.5c.824-2.41 1.928-4.456 4.737-4.5C23.312 1.94 27 5.346 27 9c0 3.363-1.5 8.036-6 8.5-.965.1-2.5 0-3.5-1M8.066 3.694C3.067 4.03.657 6.12.657 8.814s1.472 3.942 5.842 3.686" stroke="#074D75"/><path fill="#074D75" d="m7.384 2.861 2.61-.437.256 1.583-2.61.438z"/><circle cx="8.5" cy="8.5" r=".5" fill="#074D75"/><circle cx="16.5" cy="14.5" r=".5" fill="#074D75"/><circle cx="16.5" cy="8.5" r=".5" fill="#074D75"/><circle cx="8.5" cy="14.5" r=".5" fill="#074D75"/></svg>