<svg width="28" height="23" fill="none" xmlns="http://www.w3.org/2000/svg"><path d="M27 11.385c.014-.882-.175-1.197-1.156-1.198H11.977V8.988c-.008-.882-.2-1.197-1.155-1.198H7.933c-1.19-.004-1.98-.134-2.889.599-.252.203-.518.354-.577.6v1.197H1v1.199" stroke="#074D75"/><path d="M27 11.385v.599c.014.882-.175 1.197-1.156 1.198H11.977v1.199c-.008.881-.2 1.197-1.155 1.198H7.933c-1.19.004-1.98.133-2.889-.599-.252-.203-.518-.354-.577-.6v-1.198H1v-1.798M10 0v7.79m5-2.72v5.07m5-5.07v5.07m5-5.07v5.07M10 23v-7.79m5 3.043v-5.07m5 5.07v-5.07m5 5.07v-5.07M7.356 10.186v2.996M12 10v3m-7.5-3v3" stroke="#074D75"/></svg>