<svg width="19" height="27" fill="none" xmlns="http://www.w3.org/2000/svg"><path d="M9.5 4.04c-.954-.264-1.485-.532-2.266-1.148C6.01 1.93 5.099.507 3.267 1.17c-.884.32-1.457.804-1.7 1.722-.433 1.634.892 2.36 1.7 3.444.718.963.998 1.67 1.133 2.87" stroke="#074D75"/><path d="M9.415 4.04c.955-.264 1.485-.532 2.266-1.148 1.223-.963 2.135-2.385 3.967-1.722.884.32 1.457.804 1.7 1.722.433 1.634-.892 2.36-1.7 3.444-.718.963-.998 1.67-1.133 2.87M9.5 14.202c-.954.264-1.485.532-2.266 1.148-1.223.963-2.135 2.385-3.967 1.722-.884-.32-1.457-.804-1.7-1.722-.433-1.634.892-2.36 1.7-3.444.718-.963.998-1.67 1.133-2.87" stroke="#074D75"/><path d="M9.415 14.202c.955.264 1.485.532 2.266 1.148 1.223.963 2.135 2.385 3.967 1.722.884-.32 1.457-.804 1.7-1.722.433-1.634-.892-2.36-1.7-3.444-.718-.963-.998-1.67-1.133-2.87m.651-5.57-1.7 1.722M4.4 3.466l1.7 1.722m9.066 9.184-1.7-1.722M4.4 14.372l1.7-1.722m5.733-3.444c0 1.315-1.051 2.37-2.334 2.37-1.282 0-2.333-1.055-2.333-2.37 0-1.315 1.05-2.37 2.333-2.37 1.283 0 2.334 1.055 2.334 2.37Zm-4.6 6.314v10.906" stroke="#074D75"/><rect x="2.633" y="22.908" width="4.667" height="3.592" rx=".5" stroke="#074D75"/><path d="M1 23.556v1.148m0 1.148v-1.148m0 0h1.7m9.067-9.184v10.906" stroke="#074D75"/><rect x="-.5" y=".5" width="4.667" height="3.592" rx=".5" transform="matrix(-1 0 0 1 15.867 22.408)" stroke="#074D75"/><path d="M18 23.556v1.148m0 1.148v-1.148m0 0h-1.7m-9.067 0h4.534" stroke="#074D75"/></svg>