<svg width="34" height="24" fill="none" xmlns="http://www.w3.org/2000/svg"><path d="M8.313 2.836c3.393-2.443 7.907-2.453 11.374 0M9.938 5.365c2.474-1.68 5.771-1.695 8.124 0m-6.499 2.753c1.512-1.009 3.433-1.041 4.874 0M29 21.389h3s1 0 1-.5v-2c0-1-1-1-1-1s1-1.5-2-2-5-1-5-1-2.82-2.342-5-3c-1.137-.343-2-.5-4-.5h-4c-3 0-3.915.41-5 1-1.099.596-2.5 2-2.5 2h-2c-1 0-1.5.5-1.5 1.5v4.5s0 1 1 1h3m-.5-7h4m-7 4h4m23 0h4m-15-4h7" stroke="#074D75"/><circle cx="8" cy="20.889" r="2.5" stroke="#074D75"/><circle cx="26" cy="20.889" r="2.5" stroke="#074D75"/><path d="M11 21.389h12" stroke="#074D75"/></svg>