<svg width="28" height="23" fill="none" xmlns="http://www.w3.org/2000/svg"><path d="M1 14.617V1.474c9.875 1.96 15.647 1.981 26 0v13.143c-10.173 2.273-15.824 2.327-26 0Z" stroke="#074D75"/><path d="M3 13.491V4c8.355 1.713 13.24 1.732 22 0v9.491M9 16c1.135.428 2.935 1.486 2.947 2.56C11.96 19.632 10 22 10 22h7s-2.334-.909-2.316-2.783C14.703 17.342 15.953 16.204 18 16c-3.436.57-5.397.598-9 0Z" stroke="#074D75"/><path d="M20.158 9.36h-4.105V11H19v1c-.768.228-2 4.588-4 4.588h1.053c2.052 0 1.416-2.91 4.105-3.943 1.26-.388 2.053-3.286 0-3.286Z" stroke="#074D75"/></svg>