<svg width="26" height="23" fill="none" xmlns="http://www.w3.org/2000/svg"><path d="M.5 13.174a1.5 1.5 0 0 1 1.5-1.5h22a1.5 1.5 0 0 1 1.5 1.5v7.304a1.5 1.5 0 0 1-1.5 1.5H2a1.5 1.5 0 0 1-1.5-1.5v-7.304Zm8.543-7.652c4.72-5.402 10.988-5.413 15.826 0" stroke="#074D75"/><path d="M12.434 7.783c2.754-3.002 6.424-3.028 9.044 0" stroke="#074D75"/><circle cx="14.696" cy="16.826" r="1.13" fill="#074D75"/><circle cx="19.218" cy="16.826" r="1.13" fill="#074D75"/><path d="M15.827 11.74v-1.697c0-1.695 2.26-1.695 2.26 0v1.696" stroke="#074D75"/></svg>