<svg width="33" height="33" fill="none" xmlns="http://www.w3.org/2000/svg"><path d="M14.849 6.303 20.152 1l11.314 11.314-5.303 5.303M14.849 6.303 9.192 11.96c-2.475 2.475-2.383 5.071-4.596 7.425l8.485 8.485c2.49-2.348 4.95-2.121 7.425-4.596l5.657-5.657M14.849 6.303l2.121 2.122-2.474 2.474 2.12 2.122-6.363 6.364 2.828 2.828 6.364-6.364 2.122 2.122 2.474-2.475 2.122 2.121m-3.89-13.789-3.535 3.536m5.657-1.414L20.86 9.485m7.778.707-3.536 3.536m1.414-5.657-3.535 3.536" stroke="#074D75"/><path d="m7.778 22.567-3.182 3.182 2.121 2.121L9.9 24.688" stroke="#074D75"/></svg>