<svg width="175" height="254" fill="none" xmlns="http://www.w3.org/2000/svg"><rect width="175" height="254" rx="30" fill="#fff"/><path d="M81.924 31.394c2.948-3.381 8.204-3.381 11.152 0a7.4 7.4 0 0 0 8.693 1.848c4.069-1.89 8.87.248 10.188 4.536a7.4 7.4 0 0 0 7.19 5.223c4.486-.07 8.002 3.835 7.462 8.288a7.401 7.401 0 0 0 4.444 7.697c4.127 1.76 5.751 6.757 3.446 10.606a7.4 7.4 0 0 0 .929 8.838c3.054 3.286 2.505 8.513-1.166 11.092a7.4 7.4 0 0 0-2.746 8.452c1.454 4.244-1.174 8.795-5.576 9.658a7.4 7.4 0 0 0-5.947 6.604c-.398 4.469-4.649 7.558-9.022 6.556a7.4 7.4 0 0 0-8.119 3.614c-2.181 3.921-7.321 5.013-10.909 2.319a7.4 7.4 0 0 0-8.886 0c-3.588 2.694-8.728 1.602-10.91-2.319a7.399 7.399 0 0 0-8.118-3.614c-4.373 1.002-8.624-2.087-9.022-6.556a7.4 7.4 0 0 0-5.947-6.604c-4.402-.863-7.03-5.414-5.576-9.658a7.4 7.4 0 0 0-2.746-8.452c-3.671-2.58-4.22-7.806-1.166-11.092a7.4 7.4 0 0 0 .929-8.838c-2.305-3.849-.68-8.847 3.446-10.606a7.399 7.399 0 0 0 4.444-7.697c-.54-4.453 2.976-8.359 7.462-8.288a7.399 7.399 0 0 0 7.19-5.223c1.318-4.288 6.12-6.426 10.188-4.536a7.4 7.4 0 0 0 8.693-1.848Z" fill="#6449FA"/><path d="M90.922 52.01c-.885-.094-1.69.517-1.798 1.398a1.61 1.61 0 0 0 1.399 1.799c2.187.272 4.324 1.046 6.352 1.902a1.614 1.614 0 0 0 2.112-.859 1.613 1.613 0 0 0-.86-2.112c-2.301-.969-4.726-1.82-7.204-2.129Zm18.094 13.085c.709-.538.848-1.55.31-2.258a27.536 27.536 0 0 0-5.27-5.27 1.612 1.612 0 1 0-1.949 2.568 24.174 24.174 0 0 1 4.65 4.65c.54.712 1.551.846 2.259.31Zm1.627 2.811a1.613 1.613 0 0 0-.859 2.111c.856 2.029 1.734 4.273 2.006 6.46a1.61 1.61 0 1 0 3.198-.4c-.309-2.478-1.264-5.01-2.233-7.312a1.618 1.618 0 0 0-2.112-.86ZM76.872 54.138a1.613 1.613 0 0 0-.86 2.112 1.614 1.614 0 0 0 2.113.86c2.028-.857 4.165-1.631 6.352-1.903a1.61 1.61 0 0 0 1.399-1.799c-.11-.881-.917-1.492-1.799-1.399-2.478.309-4.903 1.16-7.205 2.13ZM87.5 107c13.791 0 25.783-10.413 27.488-24.078a1.612 1.612 0 0 0-1.399-1.798c-.888-.1-1.69.516-1.799 1.399-1.504 12.056-12.122 21.254-24.29 21.254-13.328 0-24.277-10.949-24.277-24.277 0-5.874 2.33-11.59 6.123-15.957v.534a1.61 1.61 0 1 0 3.222 0V59.52a1.61 1.61 0 0 0-1.611-1.612h-4.558a1.61 1.61 0 1 0 0 3.222h.775C62.711 66.12 60 72.706 60 79.5 60 94.605 72.395 107 87.5 107Z" fill="#fff"/><path d="M68.057 79.5c0 10.663 8.78 19.444 19.443 19.444 10.663 0 19.443-8.781 19.443-19.444 0-10.662-8.78-19.443-19.443-19.443-10.662 0-19.443 8.78-19.443 19.443Zm21.054-6.445a1.61 1.61 0 1 1 3.223 0v4.834h3.223v-4.834a1.61 1.61 0 1 1 3.222 0v12.89a1.61 1.61 0 1 1-3.222 0v-4.834h-4.834a1.61 1.61 0 0 1-1.612-1.61v-6.446Zm-8.056 1.611c-.89 0-1.612.722-1.612 1.611a1.61 1.61 0 1 1-3.222 0 4.84 4.84 0 0 1 4.834-4.834 4.84 4.84 0 0 1 4.834 4.834c0 3.223-2.145 4.831-3.868 6.123-.955.716-1.634 1.29-2.066 1.934h4.322a1.61 1.61 0 1 1 0 3.223h-6.445a1.61 1.61 0 0 1-1.611-1.612c0-3.222 2.144-4.83 3.868-6.122 1.646-1.236 2.577-2.01 2.577-3.546 0-.889-.722-1.61-1.611-1.61Z" fill="#fff"/><path d="M44.06 182.52c.907-.72 1.32-1.053 1.24-1 2.613-2.16 4.667-3.933 6.16-5.32 1.52-1.387 2.8-2.84 3.84-4.36 1.04-1.52 1.56-3 1.56-4.44 0-1.093-.253-1.947-.76-2.56s-1.267-.92-2.28-.92-1.813.387-2.4 1.16c-.56.747-.84 1.813-.84 3.2h-6.6c.053-2.267.533-4.16 1.44-5.68.933-1.52 2.147-2.64 3.64-3.36 1.52-.72 3.2-1.08 5.04-1.08 3.173 0 5.56.813 7.16 2.44 1.627 1.627 2.44 3.747 2.44 6.36 0 2.853-.973 5.507-2.92 7.96-1.947 2.427-4.427 4.8-7.44 7.12h10.8v5.56H44.06v-5.08Zm23.252.28v-5.52l12.64-18.08h7.64v17.68h3.28v5.92h-3.28v5.2h-6.84v-5.2h-13.44Zm13.92-16.08-6.72 10.16h6.72v-10.16Zm28.91-16.72-10.72 45.48h-6.6l10.72-45.48h6.6Zm20.845 13.92L120.947 188h-7l10.16-23.32h-12.44v-5.84h19.32v5.08Z" fill="#162533"/><path d="M39.68 212.08a3.415 3.415 0 0 0-1.344-1.504c-.587-.363-1.27-.544-2.048-.544-.779 0-1.483.181-2.112.544-.619.352-1.11.864-1.472 1.536-.352.661-.528 1.429-.528 2.304 0 .875.176 1.643.528 2.304a3.931 3.931 0 0 0 1.472 1.536c.63.352 1.333.528 2.112.528 1.088 0 1.984-.325 2.688-.976.704-.651 1.115-1.531 1.232-2.64H35.76v-1.184h6v1.12a5.59 5.59 0 0 1-.864 2.528 5.435 5.435 0 0 1-1.936 1.808c-.8.437-1.69.656-2.672.656-1.035 0-1.979-.24-2.832-.72a5.466 5.466 0 0 1-2.032-2.032c-.49-.864-.736-1.84-.736-2.928 0-1.088.245-2.064.736-2.928a5.31 5.31 0 0 1 2.032-2.032c.853-.491 1.797-.736 2.832-.736 1.184 0 2.23.293 3.136.88.917.587 1.584 1.413 2 2.48H39.68Zm11.781-.848V220h-1.456v-1.296c-.277.448-.666.8-1.168 1.056a3.602 3.602 0 0 1-1.632.368c-.682 0-1.296-.139-1.84-.416a3.186 3.186 0 0 1-1.296-1.28c-.31-.565-.464-1.253-.464-2.064v-5.136h1.44v4.944c0 .864.219 1.531.656 2 .438.459 1.035.688 1.792.688.779 0 1.392-.24 1.84-.72.448-.48.672-1.179.672-2.096v-4.816h1.456Zm3.21-1.424a.958.958 0 0 1-.703-.288.958.958 0 0 1-.289-.704c0-.277.096-.512.288-.704a.958.958 0 0 1 .705-.288.89.89 0 0 1 .672.288.958.958 0 0 1 .288.704.958.958 0 0 1-.288.704.887.887 0 0 1-.672.288Zm.705 1.424V220H53.92v-8.768h1.456Zm1.937 4.352c0-.896.181-1.68.544-2.352a3.948 3.948 0 0 1 1.488-1.584 4.18 4.18 0 0 1 2.144-.56c.683 0 1.317.16 1.904.48.587.309 1.035.72 1.344 1.232v-4.64h1.472V220h-1.472v-1.648c-.288.523-.715.955-1.28 1.296-.565.331-1.227.496-1.984.496a4.057 4.057 0 0 1-2.128-.576 4.043 4.043 0 0 1-1.488-1.616c-.363-.693-.544-1.483-.544-2.368Zm7.424.016c0-.661-.133-1.237-.4-1.728a2.752 2.752 0 0 0-1.088-1.12 2.851 2.851 0 0 0-1.488-.4c-.544 0-1.04.128-1.488.384a2.784 2.784 0 0 0-1.072 1.12c-.267.491-.4 1.067-.4 1.728 0 .672.133 1.259.4 1.76a2.9 2.9 0 0 0 1.072 1.136c.448.256.944.384 1.488.384s1.04-.128 1.488-.384a2.864 2.864 0 0 0 1.088-1.136c.267-.501.4-1.083.4-1.744Zm11.933-.32c0 .277-.017.571-.049.88h-7.007c.053.864.346 1.541.88 2.032.543.48 1.2.72 1.968.72.629 0 1.151-.144 1.567-.432.427-.299.726-.693.897-1.184h1.567a3.806 3.806 0 0 1-1.407 2.064c-.704.523-1.58.784-2.624.784-.833 0-1.58-.187-2.24-.56A3.988 3.988 0 0 1 68.686 218c-.374-.693-.56-1.493-.56-2.4 0-.907.18-1.701.543-2.384a3.781 3.781 0 0 1 1.52-1.568c.662-.373 1.42-.56 2.273-.56.831 0 1.567.181 2.207.544a3.7 3.7 0 0 1 1.472 1.504c.352.629.528 1.344.528 2.144Zm-1.505-.304c0-.555-.122-1.029-.368-1.424a2.32 2.32 0 0 0-1.007-.912 3.01 3.01 0 0 0-1.393-.32c-.736 0-1.365.235-1.888.704-.511.469-.805 1.12-.88 1.952h5.536Zm11.228 5.136c-.736 0-1.397-.128-1.984-.384-.576-.267-1.03-.629-1.36-1.088a2.825 2.825 0 0 1-.512-1.616h1.552c.053.523.267.965.64 1.328.384.352.939.528 1.664.528.693 0 1.237-.171 1.632-.512.405-.352.608-.8.608-1.344 0-.427-.117-.773-.352-1.04a2.249 2.249 0 0 0-.88-.608 13.671 13.671 0 0 0-1.424-.448c-.736-.192-1.328-.384-1.776-.576a2.953 2.953 0 0 1-1.136-.896c-.31-.416-.464-.971-.464-1.664 0-.608.155-1.147.464-1.616.31-.469.741-.832 1.296-1.088.565-.256 1.21-.384 1.936-.384 1.045 0 1.899.261 2.56.784.672.523 1.05 1.216 1.136 2.08h-1.6c-.053-.427-.277-.8-.672-1.12-.395-.331-.917-.496-1.568-.496-.608 0-1.104.16-1.488.48-.384.309-.576.747-.576 1.312 0 .405.112.736.336.992.235.256.517.453.848.592.341.128.816.277 1.424.448.736.203 1.328.405 1.776.608.448.192.832.496 1.152.912.32.405.48.96.48 1.664 0 .544-.144 1.056-.432 1.536-.288.48-.715.869-1.28 1.168-.565.299-1.232.448-2 .448Zm13.631-8.88V220h-1.456v-1.296c-.278.448-.667.8-1.168 1.056a3.602 3.602 0 0 1-1.632.368c-.683 0-1.296-.139-1.84-.416a3.186 3.186 0 0 1-1.296-1.28c-.31-.565-.464-1.253-.464-2.064v-5.136h1.44v4.944c0 .864.218 1.531.656 2 .437.459 1.034.688 1.792.688.778 0 1.392-.24 1.84-.72.448-.48.672-1.179.672-2.096v-4.816h1.456Zm3.914 1.616c.288-.501.715-.917 1.28-1.248.576-.341 1.243-.512 2-.512.779 0 1.483.187 2.112.56.64.373 1.141.901 1.504 1.584.363.672.544 1.456.544 2.352 0 .885-.181 1.675-.544 2.368a4.008 4.008 0 0 1-1.504 1.616 3.973 3.973 0 0 1-2.112.576c-.747 0-1.408-.165-1.984-.496-.565-.341-.997-.763-1.296-1.264v5.776h-1.456v-12.928h1.456v1.616Zm5.952 2.736c0-.661-.133-1.237-.4-1.728a2.752 2.752 0 0 0-1.088-1.12 2.946 2.946 0 0 0-1.488-.384c-.533 0-1.029.133-1.488.4-.448.256-.811.635-1.088 1.136-.267.491-.4 1.061-.4 1.712 0 .661.133 1.243.4 1.744.277.491.64.869 1.088 1.136.459.256.955.384 1.488.384.544 0 1.04-.128 1.488-.384a2.864 2.864 0 0 0 1.088-1.136c.267-.501.4-1.088.4-1.76Zm4.861-2.736c.288-.501.714-.917 1.28-1.248.576-.341 1.242-.512 2-.512.778 0 1.482.187 2.111.56.64.373 1.142.901 1.505 1.584.362.672.544 1.456.544 2.352 0 .885-.182 1.675-.544 2.368a4.01 4.01 0 0 1-1.505 1.616 3.972 3.972 0 0 1-2.111.576c-.747 0-1.408-.165-1.984-.496-.566-.341-.998-.763-1.296-1.264v5.776h-1.456v-12.928h1.456v1.616Zm5.952 2.736c0-.661-.134-1.237-.4-1.728a2.758 2.758 0 0 0-1.088-1.12 2.946 2.946 0 0 0-1.488-.384c-.534 0-1.03.133-1.488.4-.448.256-.811.635-1.088 1.136-.267.491-.4 1.061-.4 1.712 0 .661.133 1.243.4 1.744.277.491.64.869 1.088 1.136a3 3 0 0 0 1.488.384c.544 0 1.04-.128 1.488-.384a2.87 2.87 0 0 0 1.088-1.136c.266-.501.4-1.088.4-1.76Zm7.228 4.56a4.538 4.538 0 0 1-2.24-.56 4.068 4.068 0 0 1-1.568-1.584c-.373-.693-.56-1.493-.56-2.4 0-.896.192-1.685.576-2.368a4.015 4.015 0 0 1 1.6-1.584c.672-.373 1.424-.56 2.256-.56.832 0 1.584.187 2.256.56.672.363 1.2.885 1.584 1.568.395.683.592 1.477.592 2.384 0 .907-.203 1.707-.608 2.4a4.114 4.114 0 0 1-1.616 1.584c-.683.373-1.44.56-2.272.56Zm0-1.28c.523 0 1.013-.123 1.472-.368a2.74 2.74 0 0 0 1.104-1.104c.288-.491.432-1.088.432-1.792s-.139-1.301-.416-1.792c-.277-.491-.64-.853-1.088-1.088a2.986 2.986 0 0 0-1.456-.368c-.533 0-1.024.123-1.472.368-.437.235-.789.597-1.056 1.088-.267.491-.4 1.088-.4 1.792 0 .715.128 1.317.384 1.808.267.491.619.859 1.056 1.104.437.235.917.352 1.44.352Zm7.866-6.208a2.81 2.81 0 0 1 1.088-1.168c.48-.277 1.062-.416 1.744-.416v1.504h-.384c-1.632 0-2.448.885-2.448 2.656V220h-1.456v-8.768h1.456v1.424Zm6.289-.224v5.168c0 .427.091.731.272.912.181.171.496.256.944.256h1.072V220h-1.312c-.811 0-1.419-.187-1.824-.56-.405-.373-.608-.987-.608-1.84v-5.168h-1.136v-1.2h1.136v-2.208h1.456v2.208h2.288v1.2h-2.288Z" fill="#5E6266"/></svg>