<svg width="187" height="38" fill="none" xmlns="http://www.w3.org/2000/svg"><g clip-path="url(#a)"><g clip-path="url(#b)"><path d="M5.04 5.19c6.053-6.053 15.867-6.053 21.92 0 6.052 6.053 6.052 15.866 0 21.918l-8.525 8.524a3.444 3.444 0 0 1-4.87 0L5.04 27.108c-6.053-6.052-6.053-15.865 0-21.918Z" fill="#6449FA"/><path d="M19.579 10.983H17.49l-.298.574h-2.386l-.298-.574H12.42c-.474 0-.93.181-1.265.504a1.69 1.69 0 0 0-.524 1.218v9.471c0 .457.188.895.524 1.218.336.323.79.504 1.265.504v.287a.56.56 0 0 0 .175.406.609.609 0 0 0 .844 0 .563.563 0 0 0 .174-.406v-.287h4.772v.287a.56.56 0 0 0 .175.406.609.609 0 0 0 .843 0 .564.564 0 0 0 .175-.406v-.287c.474 0 .93-.181 1.265-.504a1.69 1.69 0 0 0 .524-1.218v-9.471a1.69 1.69 0 0 0-.524-1.218 1.825 1.825 0 0 0-1.265-.504Zm-5.965 10.332a.563.563 0 0 1-.175.406.609.609 0 0 1-.843 0 .564.564 0 0 1-.175-.406V14.14c0-.152.063-.298.175-.406a.608.608 0 0 1 .844 0 .563.563 0 0 1 .174.406v7.175Zm2.982 0a.563.563 0 0 1-.174.406.609.609 0 0 1-.844 0 .564.564 0 0 1-.175-.406V14.14c0-.152.063-.298.175-.406a.608.608 0 0 1 .844 0 .563.563 0 0 1 .174.406v7.175Zm2.983 0a.564.564 0 0 1-.175.406.609.609 0 0 1-.843 0 .563.563 0 0 1-.175-.406V14.14c0-.152.063-.298.175-.406a.608.608 0 0 1 .843 0 .563.563 0 0 1 .175.406v7.175ZM13.912 8.974h4.176v1.435h.596V8.113a.563.563 0 0 0-.175-.406.609.609 0 0 0-.421-.168h-4.176c-.158 0-.31.06-.421.168a.563.563 0 0 0-.175.406v2.296h.596V8.974Z" fill="#fff"/></g><path d="M58.692 7.147c.272 0 .493.22.493.493v3.88c0 .273-.22.494-.493.494H53.07a.493.493 0 0 0-.494.493v19.086c0 .272-.22.493-.493.493h-5.088a.493.493 0 0 1-.494-.493V12.507a.493.493 0 0 0-.493-.493h-5.621a.493.493 0 0 1-.493-.493V7.64c0-.273.22-.494.493-.494h18.304Zm17.53 14.992c0-2.037.379-3.825 1.137-5.365.781-1.54 1.835-2.723 3.161-3.552 1.327-.83 2.807-1.244 4.441-1.244 1.397 0 2.617.285 3.66.853.497.265.94.57 1.329.912.373.329 1.121.08 1.121-.417v-.57c0-.273.221-.493.494-.493h5.088c.272 0 .493.22.493.493v18.837c0 .272-.22.493-.493.493h-5.088a.493.493 0 0 1-.493-.493v-.63c0-.492-.724-.736-1.092-.408a7.144 7.144 0 0 1-1.395.963c-1.042.568-2.262.852-3.66.852-1.61 0-3.078-.414-4.405-1.243-1.326-.853-2.38-2.049-3.161-3.588-.758-1.564-1.137-3.363-1.137-5.4Zm14.85.035c0-1.515-.427-2.712-1.28-3.588-.828-.876-1.847-1.314-3.055-1.314-1.208 0-2.238.438-3.09 1.314-.83.853-1.244 2.037-1.244 3.553 0 1.515.415 2.723 1.244 3.623.852.877 1.882 1.315 3.09 1.315s2.227-.438 3.056-1.315c.852-.876 1.278-2.072 1.278-3.588Zm18.914 2.676c.142.466.803.466.944 0l3.721-12.238a.492.492 0 0 1 .472-.35h5.401c.341 0 .579.338.465.659l-6.684 18.837a.494.494 0 0 1-.465.328h-6.799a.494.494 0 0 1-.465-.328L99.892 12.92a.493.493 0 0 1 .465-.658h5.437c.217 0 .409.142.472.35l3.72 12.236Zm32.48-2.995c0 .432-.02.878-.062 1.338a.483.483 0 0 1-.484.438h-12.776a.465.465 0 0 0-.471.53c.155.976.526 1.747 1.11 2.312.711.64 1.575.96 2.594.96 1.4 0 2.406-.547 3.018-1.638a.534.534 0 0 1 .459-.281h5.516c.321 0 .558.303.456.609a8.765 8.765 0 0 1-1.633 2.908c-.853 1.042-1.931 1.859-3.233 2.451-1.303.592-2.759.888-4.37.888-1.942 0-3.671-.414-5.187-1.243-1.516-.83-2.7-2.013-3.552-3.553-.853-1.54-1.279-3.34-1.279-5.4 0-2.06.414-3.86 1.243-5.4.853-1.54 2.037-2.723 3.553-3.552 1.515-.83 3.256-1.244 5.222-1.244 1.918 0 3.624.403 5.116 1.208a8.557 8.557 0 0 1 3.481 3.446c.853 1.492 1.279 3.233 1.279 5.223Zm-6.71-1.6c.272 0 .497-.22.465-.491-.097-.815-.443-1.48-1.038-1.995-.71-.616-1.598-.924-2.664-.924-1.018 0-1.883.297-2.593.889-.564.485-.952 1.139-1.165 1.96-.076.292.158.562.46.562h6.535Zm15.496-14.458c.273 0 .494.22.494.493v25.303a.494.494 0 0 1-.494.493h-5.088a.493.493 0 0 1-.493-.493V6.29c0-.272.221-.493.493-.493h5.088Zm14.166 16.342c0-2.037.379-3.825 1.137-5.365.781-1.54 1.835-2.723 3.161-3.552 1.327-.83 2.807-1.244 4.441-1.244 1.397 0 2.617.285 3.659.853.498.265.941.57 1.33.912.373.329 1.122.08 1.122-.417v-.57c0-.273.22-.493.493-.493h5.088c.273 0 .493.22.493.493v18.837c0 .272-.22.493-.493.493h-5.088a.493.493 0 0 1-.493-.493v-.63c0-.492-.724-.736-1.092-.408a7.127 7.127 0 0 1-1.395.963c-1.042.568-2.262.852-3.659.852-1.611 0-3.079-.414-4.406-1.243-1.326-.853-2.38-2.049-3.161-3.588-.758-1.564-1.137-3.363-1.137-5.4Zm14.85.035c0-1.515-.427-2.712-1.279-3.588-.829-.876-1.848-1.314-3.056-1.314-1.207 0-2.238.438-3.09 1.314-.829.853-1.244 2.037-1.244 3.553 0 1.515.415 2.723 1.244 3.623.852.877 1.883 1.315 3.09 1.315 1.208 0 2.227-.438 3.056-1.315.852-.876 1.279-2.072 1.279-3.588Zm-111.959.711v8.708a.493.493 0 0 1-.493.493h-5.089a.493.493 0 0 1-.493-.493V12.756c0-.273.22-.493.493-.493h5.089c.272 0 .493.22.493.493v10.129Z" fill="#162533"/><path fill-rule="evenodd" clip-rule="evenodd" d="M161.73 32.086c.272 0 .493-.22.493-.493V12.756a.493.493 0 0 0-.493-.493h-5.088a.494.494 0 0 0-.494.493v18.837c0 .272.221.493.494.493h5.088Z" fill="#162533"/><circle cx="159.137" cy="7.546" r="3.24" fill="#6449FA"/><path d="M72.668 18.268a3.034 3.034 0 1 1 0-6.068 3.034 3.034 0 0 1 0 6.068Z" fill="#6449FA"/></g><defs><clipPath id="a"><path fill="#fff" d="M0 0h187v38H0z"/></clipPath><clipPath id="b"><path fill="#fff" transform="translate(0 .64)" d="M0 0h32v36.719H0z"/></clipPath></defs></svg>