<svg width="31" height="31" fill="none" xmlns="http://www.w3.org/2000/svg"><g clip-path="url(#a)"><path d="M6.252 4.252c5.11-5.11 13.395-5.11 18.505 0 5.11 5.11 5.11 13.395 0 18.505l-7.197 7.196a2.908 2.908 0 0 1-4.112 0l-7.196-7.197c-5.11-5.11-5.11-13.394 0-18.504Z" fill="#6449FA"/><path d="M18.412 9.143h-1.696l-.242.484h-1.939l-.242-.484h-1.696a1.454 1.454 0 0 0-1.454 1.454v7.996a1.454 1.454 0 0 0 1.454 1.454v.242a.485.485 0 1 0 .969 0v-.242h3.877v.242a.485.485 0 0 0 .969 0v-.242a1.454 1.454 0 0 0 1.454-1.454v-7.996a1.454 1.454 0 0 0-1.454-1.454Zm-4.846 8.723a.485.485 0 0 1-.97 0v-6.058a.485.485 0 1 1 .97 0v6.058Zm2.423 0a.485.485 0 0 1-.97 0v-6.058a.485.485 0 0 1 .97 0v6.058Zm2.423 0a.484.484 0 1 1-.97 0v-6.058a.485.485 0 0 1 .97 0v6.058Zm-4.604-10.42h3.393v1.212h.484V6.72a.484.484 0 0 0-.484-.485h-3.393a.485.485 0 0 0-.484.485v1.938h.484V7.447Z" fill="#fff"/></g><defs><clipPath id="a"><path fill="#fff" d="M0 0h31v31H0z"/></clipPath></defs></svg>