<svg width="513" height="512" fill="none" xmlns="http://www.w3.org/2000/svg"><g clip-path="url(#a)"><path d="M501.029 312.869a254.325 254.325 0 0 1-27.343 71.121 253.156 253.156 0 0 1-26.558 38.099c-27.944 33.155-64.064 22.459-107.852 38.054-26.579 9.473-118.829 49.725-124.093 48.919-36.982-5.709-72.227-19.567-103.097-40.323-43.425-29.184-58.887-71.834-77.782-124.908C15.4 290.748-4.083 235.316 11.12 185.252c22.535-74.254 78.763-137.215 157.464-165.24 20.652-7.354 41.615-11.873 62.474-13.735C318.88-1.634 404.84 37.22 457.066 107.7c14.561 19.639-3.045 75.957 5.58 100.178 16.526 46.413 48.249 60.202 38.383 104.992Z" fill="#3C87D0"/><path d="M456.017 312.868a254.345 254.345 0 0 1-27.346 71.12c-28.967 50.911-75.625 92.066-135.129 113.252-20.638 7.354-73.088 12.629-78.357 11.817-36.989-5.706-72.228-19.563-103.099-40.314-43.424-29.186-58.886-71.832-77.782-124.912C15.397 290.752-4.08 235.314 11.121 185.249c22.534-74.256 78.76-137.212 157.465-165.237 20.649-7.354 41.616-11.87 62.472-13.733 71.406 6.4 137.77 43.074 180.997 101.415 14.555 19.641 26.502 41.725 35.128 65.947 16.516 46.406 18.698 94.434 8.834 139.227Z" fill="#5F99D7"/><path d="m501.03 312.868-49.573 17.656-15.618 5.557c-27.303 9.722-57.311-4.526-67.022-31.806l-6.653-18.665-8.341 2.97c-19.958 7.113-41.9-3.299-49.003-23.257l-19.816-55.634c-7.102-19.958 3.311-41.9 23.269-49.003l112.692-40.137 36.103-12.855c14.555 19.641 26.491 41.724 35.117 65.947 16.528 46.406 18.709 94.434 8.845 139.227Z" fill="#0AB69F"/><path d="M456.017 312.868a247.941 247.941 0 0 1-4.56 17.657l-15.618 5.556c-27.303 9.723-57.311-4.526-67.022-31.806l-6.653-18.665-8.341 2.97c-19.958 7.114-41.9-3.299-49.003-23.257l-19.816-55.634c-7.102-19.958 3.311-41.9 23.269-49.003l112.692-40.136c10.577 16.264 19.422 34.02 26.217 53.091 16.517 46.406 18.699 94.434 8.835 139.227Z" fill="#5DE1C4"/><path d="m178.505 445.093-34.745 12.374-31.674 11.277c-43.424-29.186-78.234-72.052-97.13-125.132-18.895-53.037-19.037-108.21-3.868-158.243l.033-.12 32.158-11.454c19.958-7.113 41.9 3.31 49.003 23.268l4.241 11.881c6.27 17.601-1.096 36.749-16.626 45.89l.23.668c8.813 24.726-4.099 51.919-28.814 60.731l37.396-13.317.198-.066 34.557-12.309c38.404-13.678 80.633 6.357 94.312 44.761l5.514 15.465c13.677 38.417-6.381 80.647-44.785 94.326Z" fill="#0AB69F"/><path d="m143.76 457.467-31.674 11.277c-43.424-29.186-78.234-72.052-97.13-125.132-18.895-53.037-19.037-108.21-3.868-158.243 19.246-5.414 39.643 4.953 46.45 24.068l4.23 11.881c6.27 17.601-1.096 36.749-16.627 45.901l.241.657c2.646 7.751 10.358 38.974-10.99 54.384l16.92-6.028 37.396-13.317.198-.066c38.36-13.547 80.469 6.488 94.125 44.827l5.502 15.476c13.678 38.406-6.367 80.636-44.773 94.315Z" fill="#5DE1C4"/><path d="M294.66 95.057c0 16.999-10.565 32.936-27.498 38.964l-37.09 13.206c-.077.033-.143.066-.219.088l-31.193 11.103c-21.515 7.661-45.157-3.573-52.818-25.088a41.295 41.295 0 0 1-2.411-13.876c0-16.998 10.554-32.924 27.488-38.952L202.1 69.4l37.309-13.294c21.515-7.661 45.167 3.573 52.84 25.088a41.204 41.204 0 0 1 2.411 13.864Z" fill="#C8EFFE"/><path d="M257.341 108.351c0 16.923-10.467 32.793-27.269 38.876-.077.033-.143.066-.219.088l-31.193 11.103c-21.515 7.661-45.157-3.573-52.818-25.088a41.295 41.295 0 0 1-2.411-13.876c0-16.998 10.554-32.924 27.488-38.952L202.1 69.4c21.515-7.66 45.167 3.562 52.828 25.077a41.245 41.245 0 0 1 2.413 13.875Z" fill="#EAF6FF"/><path d="M146.265 399.967c16.797 0 30.413-13.616 30.413-30.413 0-16.796-13.616-30.413-30.413-30.413-16.796 0-30.413 13.617-30.413 30.413 0 16.797 13.617 30.413 30.413 30.413Zm219.044-156.343c16.319 0 29.548-13.229 29.548-29.549 0-16.319-13.229-29.548-29.548-29.548s-29.549 13.229-29.549 29.548c0 16.32 13.23 29.549 29.549 29.549Z" fill="#FEE903"/><path d="m365.309 84.784 93.118-32.57c5.625-1.967 5.625-9.922 0-11.89L365.309 7.756v77.028Z" fill="#FD4755"/><path d="M447.128 422.089c-27.944 33.155-64.781 59.558-108.568 75.153-26.578 9.473-53.684 14.22-80.418 14.717-9.08.165-18.098-.166-27.054-.962-1.489-.135-2.968-.28-4.447-.445-3.836-.403-7.663-.91-11.458-1.489 5.171-23.61 22.028-44.087 46.486-52.795l54.646-19.463 65.391-23.3c10.042-3.578 20.342-4.799 30.312-3.961a72.728 72.728 0 0 1 35.11 12.545Z" fill="#C8EFFE"/><path d="M412.018 409.544c-28.885 39.03-69.29 70.179-118.476 87.698-20.642 7.353-41.605 11.872-62.454 13.755-1.489-.135-2.968-.28-4.447-.445a249.48 249.48 0 0 1-11.458-1.489c5.171-23.61 22.028-44.087 46.486-52.795l54.646-19.463 65.391-23.3c10.042-3.578 20.342-4.799 30.312-3.961Z" fill="#EAF6FF"/><path d="M365.309 221.832a7.75 7.75 0 0 1-5.485-2.272 7.759 7.759 0 0 1-2.271-5.485V7.756A7.755 7.755 0 0 1 365.309 0a7.755 7.755 0 0 1 7.756 7.756v206.319a7.755 7.755 0 0 1-7.756 7.757Z" fill="#E9B665"/><path d="M146.274 377.308a7.75 7.75 0 0 1-7.642-9.129c.055-.305 1.392-7.622 5.096-18.99a7.759 7.759 0 0 1 9.779-4.972 7.757 7.757 0 0 1 4.971 9.777c-3.344 10.264-4.568 16.878-4.581 16.944a7.765 7.765 0 0 1-7.623 6.37Zm19.116-51.877a7.757 7.757 0 0 1-6.868-11.349c5.988-11.463 12.891-22.292 20.519-32.184a7.759 7.759 0 0 1 10.865-1.388 7.755 7.755 0 0 1 1.42 10.86c-7.074 9.176-13.485 19.235-19.054 29.896a7.762 7.762 0 0 1-6.882 4.165Zm44.946-57.895a7.753 7.753 0 0 1-7.264-5.026 7.754 7.754 0 0 1 2.151-8.566 186.792 186.792 0 0 1 31.306-22.182 7.756 7.756 0 1 1 7.616 13.515 171.395 171.395 0 0 0-28.703 20.338 7.725 7.725 0 0 1-5.106 1.921Zm63.689-35.988a7.76 7.76 0 0 1-2.394-15.137c11.77-3.82 24.284-6.667 37.194-8.461a7.752 7.752 0 0 1 8.751 6.614 7.758 7.758 0 0 1-6.615 8.751c-12.012 1.668-23.633 4.309-34.537 7.851a7.746 7.746 0 0 1-2.399.382Z" fill="#596C76"/><path d="M328.666 389.686a7.758 7.758 0 0 1-2.603-15.064l34.7-12.364c4.03-1.441 8.471.667 9.909 4.703a7.755 7.755 0 0 1-4.702 9.909l-34.7 12.364a7.779 7.779 0 0 1-2.604.452Zm-52.667-12.384a7.76 7.76 0 0 1-2.603-15.063l34.699-12.364c4.031-1.442 8.471.667 9.91 4.702a7.756 7.756 0 0 1-4.703 9.91l-34.699 12.364a7.757 7.757 0 0 1-2.604.451Z" fill="#EAF6FF"/></g><defs><clipPath id="a"><path fill="#fff" transform="translate(.204)" d="M0 0h512v512H0z"/></clipPath></defs></svg>