<svg width="512" height="512" fill="none" xmlns="http://www.w3.org/2000/svg"><g clip-path="url(#a)"><path d="M365.414 175.686h-30.647v-54.441h30.647c8.837 0 16 7.163 16 16v22.441c0 8.836-7.163 16-16 16Zm-212.131-54.442h29.43v54.441h-29.43c-8.837 0-16-7.163-16-16v-22.441c0-8.836 7.164-16 16-16Z" fill="#FFB09E"/><path d="m77.814 401.445 93.36 29.129 38.16 42.346L297.713 512h138.115c5.69 0 10.302-4.612 10.302-10.302V401.445c0-65.999-53.502-119.501-119.501-119.501H210.534l-17.76.896c-65.999 0-114.96 52.607-114.96 118.605Z" fill="#5F99D7"/><path d="M446.13 401.445c0-54.023-35.852-99.666-85.058-114.454-3.984 20.795-.278 42.46 11.048 61.287l26.889 44.695c-11.404 5.12-19.367 16.585-19.367 29.875 0 18.045 14.681 32.726 32.727 32.726h33.762v-54.129h-.001ZM99.495 489.438v-87.993c0-65.999 53.503-119.501 119.501-119.501h-27.197c-65.999 0-119.501 53.503-119.501 119.501v87.993c0 5.69 4.612 10.302 10.302 10.302h27.197c-5.69 0-10.302-4.612-10.302-10.302Z" fill="#3C87D0"/><path d="m259.734 324.3-2.34.09c-20.28 0-32.34-13.509-32.34-33.789l.84-59.785h71.148v59.785c0 16.708-11.159 30.81-26.431 35.259-3.264.951-7.305-1.56-10.877-1.56Z" fill="#FFCEBF"/><path d="M243.637 289.531v-58.715h-22.252v58.715c0 20.871 16.936 37.79 37.828 37.79 3.872 0 7.879-.381 11.397-1.461-15.46-4.747-26.973-19.327-26.973-36.329Z" fill="#FFB09E"/><path d="M312.102 38.445H206.326c-18.994 0-28.912 15.382-28.912 34.357l-2.16 109.76c0 43.978 31.016 78.279 75.038 78.279l16.492 1.351c44.023 0 79.71-35.652 79.71-79.63V72.802c0-18.975-15.398-34.357-34.392-34.357Z" fill="#FFCEBF"/><path d="M194.33 182.563V72.803c0-18.976 15.398-34.358 34.392-34.358h-22.396c-18.994 0-34.392 15.382-34.392 34.357v109.76c0 43.978 35.687 79.63 79.71 79.63h15.14c1.217 0 2.425-.038 3.628-.092-42.338-1.895-76.082-36.775-76.082-79.537Z" fill="#FFB09E"/><path d="m262.158 90.378 17.756 12.372a103.013 103.013 0 0 0 58.893 18.494h17.987V72.865C356.795 32.623 324.14 0 283.857 0h-32.898l-16.335 1.38c-40.283 0-64.65 32.418-64.65 72.66l-3.12 41.28 12.765 5.924c21.06 0 41.614-6.454 58.893-18.494l17.756-12.372a5.152 5.152 0 0 1 5.89 0Z" fill="#FFD772"/><path d="M182.713 72.865C182.713 32.623 215.368 0 255.651 0h-21.08c-40.283 0-72.938 32.623-72.938 72.865v48.379h17.987c1.033 0 2.063-.028 3.093-.059v-48.32Z" fill="#FDB440"/><path d="M259.214 223.119a43.586 43.586 0 0 1-22.335-6.159l-4.018-2.396a7.72 7.72 0 0 1-3.756-7.772 7.725 7.725 0 0 1 8.82-6.54 7.716 7.716 0 0 1 2.85 1.039l4.018 2.395a28.135 28.135 0 0 0 28.843-.001l4.018-2.395a7.726 7.726 0 0 1 7.914 13.273l-4.018 2.395a43.59 43.59 0 0 1-22.336 6.161Z" fill="#EA8E5C"/><path d="M297.713 512h-71.238l-17.381-31.4 17.381-9.787h61.238c5.523 0 10 4.477 10 10V512Z" fill="#B3CEEC"/><path d="m210.294 485.16-4.08 15.12L226.475 512h19.182v-41.187h-19.182l-16.181 14.347Z" fill="#98BCE5"/><path d="M226.475 512H24.971l-7.517-5c-5.523 0-3.6.523-3.6-5l-4.32-124.057c0-5.523-.123-7.023 5.4-7.023l18.36-2.977h183.181c5.523 0 10 4.477 10 10V512Z" fill="#D3E1F5"/><path d="M35.273 367.943H13.516c-5.69 0-10.302 4.612-10.302 10.302v123.454c0 5.69 4.612 10.302 10.302 10.302h11.456V378.244c-.001-5.689 4.612-10.301 10.301-10.301Zm80.129 91.066h-1.116c-10.206 0-18.48-8.274-18.48-18.48v-1.116c0-10.206 8.274-18.48 18.48-18.48h1.116c10.206 0 18.48 8.274 18.48 18.48v1.116c0 10.206-8.274 18.48-18.48 18.48Z" fill="#B3CEEC"/><path d="M220.716 169.312a7.728 7.728 0 1 0 0-15.456 7.728 7.728 0 0 0 0 15.456Zm76.996 0a7.728 7.728 0 1 0 0-15.456 7.728 7.728 0 0 0 0 15.456Z" fill="#DD774A"/><path d="M499.536 335.879c22.939-37.374 1.095-86.652-42.183-93.724a69.656 69.656 0 0 0-12.28-.9c-.763.011 4.165.035 3.408.072-46.514 2.236-73.255 54.16-49.249 94.064l46.926 87.457 53.378-86.969Zm-53.409-59.305c14.78 0 26.761 11.981 26.761 26.761s-11.981 26.761-26.761 26.761-26.761-11.981-26.761-26.761c-.001-14.78 11.981-26.761 26.761-26.761Z" fill="#FF9A42"/><path d="M411.046 335.391c-23.072-38.352.735-87.799 43.917-93.573a69.86 69.86 0 0 0-12.173-.491c-46.514 2.236-73.255 54.16-49.249 94.064l52.614 87.457 8.84-14.402-43.949-73.055Z" fill="#FF7A3C"/><path d="M479.886 430.574h-67.518a7.726 7.726 0 0 1 0-15.452h67.518a7.725 7.725 0 0 1 7.726 7.726 7.725 7.725 0 0 1-7.726 7.726Z" fill="#D3E1F5"/></g><defs><clipPath id="a"><path fill="#fff" d="M0 0h512v512H0z"/></clipPath></defs></svg>