<svg width="512" height="512" fill="none" xmlns="http://www.w3.org/2000/svg"><g clip-path="url(#a)"><path d="M48.789 65.28 9.756 72.885v255.648c0 11.379 9.225 20.604 20.604 20.604h43.679l90.98 33.304L256 349.136h35.126c5.082 0 9.985-1.878 13.766-5.274l17.015-15.28c7.831-7.032 19.702-7.032 27.532 0l17.015 15.28a20.601 20.601 0 0 0 13.766 5.274h111.175c11.379 0 20.604-9.224 20.604-20.604V72.885l-69.08-7.605H48.789Z" fill="#D3E1F5"/><path d="M491.396 0H380.221a20.601 20.601 0 0 0-13.766 5.274l-17.015 15.28c-7.83 7.032-19.702 7.032-27.532 0l-17.015-15.28A20.607 20.607 0 0 0 291.126 0H20.604C9.225 0 0 9.225 0 20.604v52.281h512V20.604C512 9.225 502.775 0 491.396 0Z" fill="#5F99D7"/><path d="M28.186 328.532V72.885l-3.791-6.525H6.6L0 72.885v255.648c0 11.379 9.225 20.604 20.604 20.604H48.79c-11.38-.001-20.604-9.226-20.604-20.605Z" fill="#B3CEEC"/><path d="M48.789 0H20.604C9.225 0 0 9.225 0 20.604v52.281h28.186V20.604C28.186 9.225 37.41 0 48.789 0Z" fill="#3C87D0"/><path d="M262.387 159.286h32.1a5.15 5.15 0 0 0 5.151-5.151v-30.829a5.15 5.15 0 0 0-5.151-5.151h-32.1a5.145 5.145 0 0 0-4.759 3.18 5.15 5.15 0 0 0-.392 1.971v30.829a5.145 5.145 0 0 0 3.18 4.759 5.145 5.145 0 0 0 1.971.392Z" fill="#FFD772"/><path d="M232.92 293.64c-12.231 0-15.12 6.954-15.12 19.185l-.423 36.311H83.64L80.4 499.8c0 5.69 14.83 12.2 20.52 12.2h117.547c5.69 0 10.302-4.612 10.302-10.302v-32.452a53.575 53.575 0 0 1 6.858-26.225l13.514-24.071a53.564 53.564 0 0 0 6.858-26.225v-79.9c0-8.274-4.537-15.488-11.259-19.289-3.214-1.819-7.863.104-11.82.104Z" fill="#FFCEBF"/><path d="M95.796 501.698V349.136H74.04v152.562c0 5.69 4.612 10.302 10.302 10.302h21.757c-5.689 0-10.302-4.612-10.302-10.302Zm137.67-188.873c0-8.273 4.545-15.474 11.267-19.276a22.02 22.02 0 0 0-10.879-2.869c-12.231 0-22.145 9.915-22.145 22.145v82.332h21.757v-82.332Zm-21.757 82.332h-15.56c-17.192 0-31.13 13.937-31.13 31.13v25.984h21.228v-25.984c0-17.192 13.937-31.13 31.129-31.13h-5.667Z" fill="#FFB09E"/><path d="M334.818 87.168a7.726 7.726 0 0 0 7.726-7.726V60.527a7.726 7.726 0 0 0-15.452 0v18.914a7.732 7.732 0 0 0 4.769 7.139 7.726 7.726 0 0 0 2.957.588Z" fill="#B3CEEC"/><path d="M342.544 72.885V60.527a7.726 7.726 0 0 0-15.452 0v12.358h15.452Z" fill="#3C87D0"/><path d="M327.092 131.733a7.726 7.726 0 0 0 15.452 0v-18.914a7.726 7.726 0 0 0-15.452 0v18.914Zm0 52.292a7.726 7.726 0 0 0 15.452 0v-18.914a7.726 7.726 0 0 0-15.452 0v18.914Zm0 52.292a7.726 7.726 0 0 0 15.452 0v-18.914a7.726 7.726 0 0 0-15.452 0v18.914Zm0 52.292a7.726 7.726 0 0 0 15.452 0v-18.914a7.726 7.726 0 0 0-15.452 0v18.914Zm43.506-162.727H474.44a7.726 7.726 0 0 0 0-15.452H370.598a7.725 7.725 0 0 0-7.726 7.726 7.725 7.725 0 0 0 7.726 7.726Zm0 41.13H474.44a7.726 7.726 0 0 0 0-15.452H370.598a7.734 7.734 0 0 0-5.463 2.263 7.71 7.71 0 0 0-2.263 5.463 7.734 7.734 0 0 0 2.263 5.463 7.71 7.71 0 0 0 5.463 2.263Zm0 41.131H474.44a7.726 7.726 0 0 0 0-15.452H370.598a7.725 7.725 0 0 0-7.726 7.726 7.725 7.725 0 0 0 7.726 7.726Zm0 41.13H474.44a7.726 7.726 0 0 0 0-15.452H370.598a7.725 7.725 0 0 0-7.726 7.726 7.725 7.725 0 0 0 7.726 7.726Zm0 41.13H474.44a7.726 7.726 0 0 0 0-15.452H370.598a7.725 7.725 0 0 0-7.726 7.726 7.725 7.725 0 0 0 7.726 7.726Zm-67.786-97.713h-45.575a7.726 7.726 0 0 0 0 15.452h45.575a7.726 7.726 0 0 0 0-15.452Zm0 41.13h-45.575a7.726 7.726 0 0 0 0 15.452h45.575a7.726 7.726 0 0 0 0-15.452Z" fill="#B3CEEC"/><path d="M225.944 212.908v-3.827c0-.587-.167-1.161-.481-1.657a3.099 3.099 0 0 0-1.295-1.14l-67.943-31.93a4.122 4.122 0 0 1-2.368-3.729V140.24c0-10.076-7.834-18.678-17.904-19.015h-1.27c-10.07.336-17.904 8.939-17.904 19.015v30.385a4.126 4.126 0 0 1-2.368 3.729l-67.943 31.93a3.095 3.095 0 0 0-1.776 2.797v3.827a3.088 3.088 0 0 0 3.09 3.09h64.876c1.093 0 2.141.434 2.913 1.207a4.116 4.116 0 0 1 1.207 2.913v31.53c0 .769-.215 1.523-.622 2.176a4.113 4.113 0 0 1-1.677 1.52l-14.206 7.001a16.051 16.051 0 0 0-8.958 14.402v19.318a2.057 2.057 0 0 0 .929 1.722 2.06 2.06 0 0 0 1.949.169l30.9-13.367a25.755 25.755 0 0 1 20.447 0l30.9 13.367a2.061 2.061 0 0 0 2.878-1.891v-19.318a16.057 16.057 0 0 0-8.958-14.402l-14.206-7.001a4.113 4.113 0 0 1-1.677-1.52 4.114 4.114 0 0 1-.622-2.176v-31.53c0-1.093.434-2.141 1.207-2.913a4.116 4.116 0 0 1 2.913-1.207h64.876a3.099 3.099 0 0 0 2.187-.904 3.087 3.087 0 0 0 .906-2.186Z" fill="#5F99D7"/></g><defs><clipPath id="a"><path fill="#fff" d="M0 0h512v512H0z"/></clipPath></defs></svg>