<svg width="25" height="25" fill="none" xmlns="http://www.w3.org/2000/svg"><g clip-path="url(#a)"><path d="M13.216 24.453C19.724 24.453 25 19.177 25 12.669 25 6.16 19.724.885 13.216.885 6.708.885 1.432 6.16 1.432 12.669c0 6.508 5.276 11.784 11.784 11.784Z" fill="url(#b)"/><path d="M21.513 6.47a11.764 11.764 0 0 0-1.282-.816c-.248-.45-.52-.878-.817-1.283C17.764 2.126 15.564.89 13.216.89c-2.348 0-4.549 1.237-6.198 3.482-.297.405-.57.834-.817 1.283-.45.247-.878.52-1.283.817-2.245 1.65-3.482 3.85-3.482 6.198 0 2.347 1.237 4.549 3.482 6.198.405.297.834.57 1.283.817.247.45.52.878.817 1.282 1.65 2.246 3.85 3.482 6.198 3.482 2.347 0 4.549-1.236 6.198-3.482.297-.404.57-.833.817-1.282.45-.248.878-.52 1.282-.817 2.246-1.65 3.482-3.85 3.482-6.198 0-2.348-1.236-4.549-3.482-6.198Zm-8.297 17.424c-.647 0-1.333-.964-1.875-2.608a16.067 16.067 0 0 0 3.75 0c-.542 1.644-1.228 2.608-1.875 2.608Zm0-3.053c-.701 0-1.387-.047-2.052-.137-.37-1.307-.638-2.875-.792-4.587.92.066 1.873.1 2.844.1.971 0 1.925-.034 2.844-.1-.154 1.712-.422 3.28-.792 4.587-.665.09-1.351.137-2.052.137Zm0-19.397c.647 0 1.333.964 1.875 2.608a16.043 16.043 0 0 0-3.75 0c.542-1.644 1.228-2.608 1.875-2.608Zm0 3.053c.7 0 1.387.047 2.052.137.37 1.306.638 2.874.791 4.586-.918-.065-1.872-.1-2.843-.1a40 40 0 0 0-2.844.1c.154-1.712.422-3.28.792-4.586a15.33 15.33 0 0 1 2.052-.137Zm-2.994 8.172c0-.989.036-1.958.105-2.89a39.777 39.777 0 0 1 5.779.001 39.777 39.777 0 0 1-.001 5.779c-.931.068-1.9.103-2.89.103a39.21 39.21 0 0 1-2.888-.104c-.07-.931-.105-1.9-.105-2.89Zm-.455 2.843c-1.712-.153-3.28-.421-4.586-.79a15.338 15.338 0 0 1 0-4.106c1.306-.369 2.874-.637 4.586-.79a40.374 40.374 0 0 0 0 5.686Zm6.898-5.687c1.712.154 3.28.422 4.586.792a15.338 15.338 0 0 1 0 4.104c-1.306.37-2.875.638-4.586.791a40.374 40.374 0 0 0 0-5.687Zm-.045-.56c-.146-1.678-.4-3.226-.75-4.537a13.42 13.42 0 0 1 3.95 1.337 13.417 13.417 0 0 1 1.337 3.95c-1.311-.35-2.859-.604-4.537-.75Zm-6.808 0c-1.678.146-3.226.4-4.537.75a13.42 13.42 0 0 1 1.337-3.95 13.42 13.42 0 0 1 3.95-1.337c-.35 1.311-.604 2.859-.75 4.537Zm-5.213 5.279C2.955 14 1.99 13.316 1.99 12.669s.964-1.333 2.608-1.875a16.053 16.053 0 0 0 0 3.75Zm5.213 1.529c.146 1.678.4 3.225.75 4.537a13.42 13.42 0 0 1-3.95-1.337 13.42 13.42 0 0 1-1.337-3.95c1.311.35 2.859.604 4.537.75Zm6.808 0c1.678-.146 3.226-.4 4.537-.75a13.417 13.417 0 0 1-1.337 3.95 13.417 13.417 0 0 1-3.95 1.337c.35-1.312.604-2.859.75-4.537Zm5.213-5.279c1.644.542 2.608 1.228 2.608 1.875s-.964 1.332-2.608 1.875a16.045 16.045 0 0 0 0-3.75Zm2.477.626c-.543-.463-1.403-.879-2.56-1.235a14.262 14.262 0 0 0-1.06-3.607c1.897 1.235 3.215 2.93 3.62 4.842Zm-5.003-6.226c-1.114-.5-2.33-.857-3.608-1.058-.356-1.159-.771-2.019-1.234-2.561 1.912.404 3.607 1.723 4.842 3.619Zm-7.34-3.62c-.463.543-.879 1.404-1.234 2.562a14.262 14.262 0 0 0-3.608 1.058c1.235-1.896 2.93-3.215 4.842-3.62ZM5.741 6.579c-.5 1.114-.857 2.33-1.058 3.607-1.158.356-2.019.772-2.561 1.235.404-1.912 1.723-3.607 3.619-4.842Zm-3.62 7.34c.543.462 1.404.878 2.562 1.234A14.264 14.264 0 0 0 5.74 18.76c-1.896-1.235-3.215-2.93-3.62-4.842Zm5.004 6.226c1.114.5 2.33.857 3.607 1.058.356 1.158.772 2.018 1.235 2.56-1.912-.404-3.607-1.722-4.842-3.618Zm7.34 3.619c.462-.543.878-1.403 1.234-2.56a14.268 14.268 0 0 0 3.608-1.06c-1.235 1.897-2.93 3.215-4.842 3.62Zm6.226-5.003c.5-1.114.857-2.33 1.058-3.608 1.158-.356 2.018-.771 2.56-1.234-.404 1.912-1.722 3.607-3.618 4.842Z" fill="url(#c)"/><path d="M9.163 1.6a11.822 11.822 0 0 0-6.654 6.142 2.597 2.597 0 0 0 .53 2.909l.24.24a5.755 5.755 0 0 0 4.07 1.686.413.413 0 0 0 0-.826h-1.27a1.06 1.06 0 1 1 0-2.12h.992A4.482 4.482 0 0 0 10.24 8.32l1.53-1.53a1.777 1.777 0 0 1 1.257-.521c.682 0 1.303-.39 1.6-1.004a1.133 1.133 0 0 0-1.02-1.627h-1.975a1.05 1.05 0 0 1-1.051-1.05c0-.734-.73-1.238-1.418-.986Z" fill="url(#d)"/><path d="M24.726 10.13a1.619 1.619 0 0 0-1.584-1.265h-2.549a2.733 2.733 0 0 0-2.733 2.732v.333a2.4 2.4 0 0 0 2.4 2.4c.674 0 1.22.547 1.22 1.22v3.188c0 .83 1.079 1.161 1.54.47a11.714 11.714 0 0 0 1.98-6.54c0-.87-.095-1.72-.274-2.538Z" fill="url(#e)"/><path d="M18.487 2.128a11.734 11.734 0 0 1 1.243 5.271c0 6.508-5.276 11.784-11.784 11.784-1.895 0-3.685-.448-5.271-1.243a11.783 11.783 0 0 0 10.54 6.513c6.51 0 11.785-5.276 11.785-11.784 0-4.613-2.651-8.607-6.513-10.541Z" fill="url(#f)"/><path d="M19.163 7.8c-.59-.591-2.059-.103-4.855 2.509l-1.634-.201-.528-.545a.722.722 0 0 0-1.175.228l-.42-.423a.722.722 0 0 0-1.209.329l-.632-.078a.572.572 0 0 0-.454.181l-1.082 1.082c-.114.114-.114.278.001.328l3.255 3.18a43.969 43.969 0 0 0-2.481 3.137l-1.621-.22a.245.245 0 0 0-.197.078l-.505.505c-.097.097-.106.237-.018.293l1.217 1.181c-.204.447-.26.764-.125.9l3.897 3.896a11.82 11.82 0 0 0 2.619.293c6.195 0 11.273-4.78 11.748-10.853l-5.8-5.8Z" fill="url(#g)"/><path d="M10.04 10.601a.722.722 0 1 0 0-1.445.722.722 0 0 0 0 1.445Z" fill="url(#h)"/><path d="M10.04 10.482a.603.603 0 1 0 0-1.206.603.603 0 0 0 0 1.206Z" fill="url(#i)"/><path d="M10.726 9.65a.722.722 0 0 1-1.37 0 .722.722 0 1 0 1.37 0Z" fill="url(#j)"/><path d="M10.04 10.601a.722.722 0 1 0 0-1.445.722.722 0 0 0 0 1.445Z" fill="url(#k)"/><path d="M12.146 10.584a.722.722 0 1 1-1.022-1.021.722.722 0 0 1 1.022 1.021Z" fill="url(#l)"/><path d="M11.635 10.677a.603.603 0 1 0 0-1.206.603.603 0 0 0 0 1.206Z" fill="url(#m)"/><path d="M12.32 9.845a.722.722 0 0 1-1.37 0 .723.723 0 1 0 1.37 0Z" fill="url(#n)"/><path d="M12.146 10.584a.722.722 0 1 1-1.022-1.021.722.722 0 0 1 1.022 1.021Z" fill="url(#o)"/><path d="M17.084 17.645a.722.722 0 1 0 0-1.445.722.722 0 0 0 0 1.445Z" fill="url(#p)"/><path d="M17.084 17.526a.603.603 0 1 0 0-1.206.603.603 0 0 0 0 1.206Z" fill="url(#q)"/><path d="M17.313 16.237a.72.72 0 0 0-.283 1.196.72.72 0 0 0 .283.175.722.722 0 1 1 0-1.37Z" fill="url(#r)"/><path d="M17.084 17.645a.722.722 0 1 0 0-1.445.722.722 0 0 0 0 1.445Z" fill="url(#s)"/><path d="M16.379 14.817a.722.722 0 1 0 1.021 1.021.722.722 0 0 0-1.021-1.021Z" fill="url(#t)"/><path d="M16.89 15.93a.603.603 0 1 0 0-1.205.603.603 0 0 0 0 1.206Z" fill="url(#u)"/><path d="M17.118 14.642a.722.722 0 0 0 0 1.37.722.722 0 1 1 0-1.37Z" fill="url(#v)"/><path d="M16.379 14.817a.722.722 0 1 0 1.021 1.021.722.722 0 0 0-1.021-1.021Z" fill="url(#w)"/><path d="m5.608 18.183 1.548.995 1.549-1.548-2.377-.323a.244.244 0 0 0-.197.078l-.505.505c-.097.097-.106.237-.018.293Z" fill="url(#x)"/><path d="m5.777 17.739-.15.15c-.098.098-.107.238-.02.294l1.55.995 1.194-1.194-2.377-.323a.245.245 0 0 0-.197.078Z" fill="url(#y)"/><path d="m8.78 21.355-.995-1.548 1.548-1.548.323 2.376a.244.244 0 0 1-.078.197l-.505.505c-.097.097-.237.106-.293.018Z" fill="url(#z)"/><path d="m9.224 21.186-.15.15c-.098.098-.238.107-.294.019l-.995-1.548 1.194-1.195.323 2.377a.245.245 0 0 1-.078.197Z" fill="url(#A)"/><path d="m7.175 11.21 4.927 2.123 2.935-2.934-6.327-.78a.572.572 0 0 0-.454.181l-1.082 1.082c-.114.114-.114.278.001.328Z" fill="url(#B)"/><path d="m7.559 10.497-.385.385c-.114.114-.114.278.001.328l4.927 2.123 2.238-2.237-6.327-.78a.571.571 0 0 0-.454.181Z" fill="url(#C)"/><path d="m10.374 10.607-2.361-.29a.572.572 0 0 0-.454.18l-.385.385c-.114.114-.114.278.001.328l1.815.782 1.384-1.385Z" fill="url(#D)"/><path d="m7.175 11.21 4.927 2.123 1.01-1.009-5.463-1.917-.475.475c-.114.114-.114.278.001.328Z" fill="url(#E)"/><path d="M15.753 19.788 13.63 14.86l2.934-2.935.78 6.327a.571.571 0 0 1-.181.454L16.08 19.79c-.114.114-.278.113-.328-.001Z" fill="url(#F)"/><path d="m16.466 19.404-.385.385c-.114.114-.278.113-.328-.001L13.63 14.86l2.237-2.238.78 6.327a.572.572 0 0 1-.181.454Z" fill="url(#G)"/><path d="m16.356 16.589.29 2.361a.571.571 0 0 1-.18.454l-.385.385c-.114.114-.278.114-.328-.001l-.782-1.815 1.385-1.384Z" fill="url(#H)"/><path d="M15.753 19.788 13.63 14.86l1.009-1.01 1.917 5.463-.475.475c-.114.114-.278.113-.328-.001Z" fill="url(#I)"/><path d="M15.702 13.638C12.261 17.08 7.356 20.92 6.7 20.263c-.657-.656 3.183-5.56 6.625-9.003 3.442-3.441 5.182-4.117 5.838-3.46.657.656-.019 2.397-3.46 5.838Z" fill="url(#J)"/><path d="M15.447 13.538c-3.273 3.273-7.885 6.98-8.443 6.42-.558-.557 3.148-5.169 6.421-8.442 3.274-3.274 4.876-3.97 5.434-3.412.559.558-.138 2.16-3.412 5.434Z" fill="url(#K)"/><path d="M15.702 13.638c3.442-3.442 4.118-5.182 3.461-5.839L6.7 20.263c.656.657 5.56-3.183 9.002-6.625Z" fill="url(#L)"/><path d="M16.232 9.076c-.21.184-.432.381-.664.594-.06.054-.054.138.01.15a1.93 1.93 0 0 1 1.038.527c.282.283.456.64.527 1.038.012.064.096.07.15.01.213-.232.41-.453.594-.664.125-.144.179-.324.138-.47a1.89 1.89 0 0 0-.483-.84 1.89 1.89 0 0 0-.84-.483c-.146-.04-.327.013-.47.138Z" fill="url(#M)"/><path d="M17.887 10.73a31.3 31.3 0 0 1-.518.582l-.075.083c-.055.06-.14.054-.15-.01a1.924 1.924 0 0 0-.579-1.086c-.2-.186-.436-.32-.693-.405.231-.212.451-.409.662-.592.143-.125.324-.178.47-.138.172.048.336.117.488.209a1.888 1.888 0 0 1 .533.889c.04.145-.013.325-.138.469Z" fill="url(#N)"/><path d="M17.143 11.385c.012.064.096.07.15.01.213-.232.41-.453.594-.664.125-.144.179-.324.138-.47a1.89 1.89 0 0 0-.483-.84l-.926.926c.282.283.456.64.527 1.038Z" fill="url(#O)"/><path d="m7.856 19.21-.103-.103c-.087-.087-.057-.253.064-.362l1.79-1.602c.078-.07.182-.081.238-.025.056.056.045.16-.025.239l-1.602 1.789c-.108.121-.275.15-.362.064Z" fill="url(#P)"/><path d="M1.566 22.87c-.102 0-.201-.006-.296-.018a.22.22 0 0 1-.184-.277l.098-.354a.218.218 0 0 1 .231-.16c.199.02.445-.002.727-.064a.22.22 0 0 1 .259.157l.094.352a.22.22 0 0 1-.166.271 3.548 3.548 0 0 1-.763.093Zm1.76-.646-.137-.336a.219.219 0 0 1 .117-.284c.247-.106.508-.23.78-.37a.22.22 0 0 1 .294.091l.171.32a.22.22 0 0 1-.093.3c-.294.15-.576.285-.843.4a.22.22 0 0 1-.29-.12Zm-2.972-.28a.22.22 0 0 1-.3-.15 2.085 2.085 0 0 1-.054-.49c0-.185.02-.388.06-.605a.22.22 0 0 1 .268-.175l.353.084a.22.22 0 0 1 .165.252 2.51 2.51 0 0 0-.044.444c0 .092.007.176.021.252a.22.22 0 0 1-.13.243l-.34.145Zm4.95-.722-.185-.313a.219.219 0 0 1 .074-.299c.243-.147.492-.304.747-.47a.22.22 0 0 1 .302.062l.201.302a.22.22 0 0 1-.063.306 26.34 26.34 0 0 1-.773.488.22.22 0 0 1-.303-.076ZM7.46 20.07a.22.22 0 0 1-.308-.052l.308.052Zm-6.53-.254-.34-.13a.22.22 0 0 1-.124-.288c.11-.27.242-.553.39-.85a.22.22 0 0 1 .299-.096l.322.168a.22.22 0 0 1 .094.293c-.138.274-.258.535-.36.782a.219.219 0 0 1-.281.12Zm.956-1.937-.313-.183a.22.22 0 0 1-.079-.302l.006-.01a.22.22 0 0 1 .303-.075l.31.189a.22.22 0 0 1 .074.3l-.002.004a.219.219 0 0 1-.299.077Zm17.65-10.272L19.24 7.4a.22.22 0 0 1-.055-.304c.171-.25.336-.496.491-.736a.22.22 0 0 1 .302-.065l.306.194a.22.22 0 0 1 .067.305c-.16.248-.33.502-.507.758a.22.22 0 0 1-.307.056Zm1.197-1.855-.314-.183a.22.22 0 0 1-.08-.298c.152-.265.29-.523.414-.769a.219.219 0 0 1 .291-.098l.327.158a.22.22 0 0 1 .101.296 17.6 17.6 0 0 1-.437.813.22.22 0 0 1-.302.081Zm.986-1.987-.338-.132a.22.22 0 0 1-.126-.28 5.19 5.19 0 0 0 .22-.784.219.219 0 0 1 .24-.177l.362.042a.22.22 0 0 1 .19.256c-.05.287-.139.604-.261.945a.22.22 0 0 1-.287.13Zm-2.988-2.063-.15-.33a.22.22 0 0 1 .112-.293c.317-.136.615-.247.893-.331a.22.22 0 0 1 .277.154l.092.352a.219.219 0 0 1-.147.265 7.745 7.745 0 0 0-.79.294.22.22 0 0 1-.287-.11Zm2.904-.056a.216.216 0 0 1-.25-.068.47.47 0 0 0-.043-.05c-.119-.118-.315-.179-.583-.179h-.007V.547v.401-.17a.22.22 0 0 1 .24-.22c.381.04.688.175.917.403.07.07.131.148.184.233a.22.22 0 0 1-.11.318l-.348.134Z" fill="url(#Q)"/><path d="M8.115 4.539a.685.685 0 1 0 0-1.37.685.685 0 0 0 0 1.37Z" fill="url(#R)"/><path d="M4.465 9.61a.685.685 0 1 0 0-1.37.685.685 0 0 0 0 1.37Z" fill="url(#S)"/><path d="M23.143 11.361a.685.685 0 1 0 0-1.37.685.685 0 0 0 0 1.37Z" fill="url(#T)"/></g><defs><linearGradient id="b" x1="7.509" y1="6.962" x2="21.792" y2="21.245" gradientUnits="userSpaceOnUse"><stop stop-color="#00AEFC"/><stop offset="1" stop-color="#3F3CEE"/></linearGradient><linearGradient id="c" x1="15.017" y1="25.643" x2="10.777" y2="-4.901" gradientUnits="userSpaceOnUse"><stop stop-color="#00AEFC" stop-opacity="0"/><stop offset="1" stop-color="#18CFFC"/></linearGradient><linearGradient id="d" x1="9.514" y1="7.945" x2="28.081" y2="21.119" gradientUnits="userSpaceOnUse"><stop stop-color="#E5F3FF"/><stop offset="1" stop-color="#B3CCFF"/></linearGradient><linearGradient id="e" x1="19.649" y1="13.674" x2="27.97" y2="15.138" gradientUnits="userSpaceOnUse"><stop stop-color="#E5F3FF"/><stop offset="1" stop-color="#B3CCFF"/></linearGradient><linearGradient id="f" x1="17.107" y1="10.34" x2="25.769" y2="-6.583" gradientUnits="userSpaceOnUse"><stop stop-color="#3F3CEE" stop-opacity="0"/><stop offset="1" stop-color="#2F43BC"/></linearGradient><linearGradient id="g" x1="18.355" y1="19.454" x2="12.357" y2="13.457" gradientUnits="userSpaceOnUse"><stop stop-color="#3F3CEE" stop-opacity="0"/><stop offset="1" stop-color="#2F43BC"/></linearGradient><linearGradient id="h" x1="10.048" y1="9.49" x2="10.048" y2="10.813" gradientUnits="userSpaceOnUse"><stop stop-color="#F9F7FC"/><stop offset="1" stop-color="#F0DDFC"/></linearGradient><linearGradient id="i" x1="10.048" y1="10.206" x2="10.048" y2="9.282" gradientUnits="userSpaceOnUse"><stop stop-color="#E9EDF5" stop-opacity="0"/><stop offset="1" stop-color="#fff"/></linearGradient><linearGradient id="j" x1="9.87" y1="10.086" x2="11.878" y2="9.482" gradientUnits="userSpaceOnUse"><stop stop-color="#F0DDFC" stop-opacity="0"/><stop offset=".289" stop-color="#C8B7E0" stop-opacity=".289"/><stop offset=".592" stop-color="#A595C8" stop-opacity=".592"/><stop offset=".84" stop-color="#8F81B8" stop-opacity=".84"/><stop offset="1" stop-color="#8779B3"/></linearGradient><linearGradient id="k" x1="10.114" y1="9.507" x2="9.995" y2="10.169" gradientUnits="userSpaceOnUse"><stop stop-color="#F0DDFC" stop-opacity="0"/><stop offset=".289" stop-color="#C8B7E0" stop-opacity=".289"/><stop offset=".592" stop-color="#A595C8" stop-opacity=".592"/><stop offset=".84" stop-color="#8F81B8" stop-opacity=".84"/><stop offset="1" stop-color="#8779B3"/></linearGradient><linearGradient id="l" x1="11.643" y1="9.685" x2="11.643" y2="11.008" gradientUnits="userSpaceOnUse"><stop stop-color="#F9F7FC"/><stop offset="1" stop-color="#F0DDFC"/></linearGradient><linearGradient id="m" x1="11.643" y1="10.401" x2="11.643" y2="9.477" gradientUnits="userSpaceOnUse"><stop stop-color="#E9EDF5" stop-opacity="0"/><stop offset="1" stop-color="#fff"/></linearGradient><linearGradient id="n" x1="11.465" y1="10.281" x2="13.473" y2="9.677" gradientUnits="userSpaceOnUse"><stop stop-color="#F0DDFC" stop-opacity="0"/><stop offset=".289" stop-color="#C8B7E0" stop-opacity=".289"/><stop offset=".592" stop-color="#A595C8" stop-opacity=".592"/><stop offset=".84" stop-color="#8F81B8" stop-opacity=".84"/><stop offset="1" stop-color="#8779B3"/></linearGradient><linearGradient id="o" x1="11.708" y1="9.702" x2="11.59" y2="10.364" gradientUnits="userSpaceOnUse"><stop stop-color="#F0DDFC" stop-opacity="0"/><stop offset=".289" stop-color="#C8B7E0" stop-opacity=".289"/><stop offset=".592" stop-color="#A595C8" stop-opacity=".592"/><stop offset=".84" stop-color="#8F81B8" stop-opacity=".84"/><stop offset="1" stop-color="#8779B3"/></linearGradient><linearGradient id="p" x1="17.474" y1="16.916" x2="16.151" y2="16.916" gradientUnits="userSpaceOnUse"><stop stop-color="#F9F7FC"/><stop offset="1" stop-color="#F0DDFC"/></linearGradient><linearGradient id="q" x1="16.759" y1="16.916" x2="17.683" y2="16.916" gradientUnits="userSpaceOnUse"><stop stop-color="#E9EDF5" stop-opacity="0"/><stop offset="1" stop-color="#fff"/></linearGradient><linearGradient id="r" x1="16.879" y1="17.095" x2="17.482" y2="15.087" gradientUnits="userSpaceOnUse"><stop stop-color="#F0DDFC" stop-opacity="0"/><stop offset=".289" stop-color="#C8B7E0" stop-opacity=".289"/><stop offset=".592" stop-color="#A595C8" stop-opacity=".592"/><stop offset=".84" stop-color="#8F81B8" stop-opacity=".84"/><stop offset="1" stop-color="#8779B3"/></linearGradient><linearGradient id="s" x1="17.458" y1="16.851" x2="16.796" y2="16.969" gradientUnits="userSpaceOnUse"><stop stop-color="#F0DDFC" stop-opacity="0"/><stop offset=".289" stop-color="#C8B7E0" stop-opacity=".289"/><stop offset=".592" stop-color="#A595C8" stop-opacity=".592"/><stop offset=".84" stop-color="#8F81B8" stop-opacity=".84"/><stop offset="1" stop-color="#8779B3"/></linearGradient><linearGradient id="t" x1="17.279" y1="15.322" x2="15.957" y2="15.322" gradientUnits="userSpaceOnUse"><stop stop-color="#F9F7FC"/><stop offset="1" stop-color="#F0DDFC"/></linearGradient><linearGradient id="u" x1="16.564" y1="15.322" x2="17.488" y2="15.322" gradientUnits="userSpaceOnUse"><stop stop-color="#E9EDF5" stop-opacity="0"/><stop offset="1" stop-color="#fff"/></linearGradient><linearGradient id="v" x1="16.684" y1="15.5" x2="17.288" y2="13.492" gradientUnits="userSpaceOnUse"><stop stop-color="#F0DDFC" stop-opacity="0"/><stop offset=".289" stop-color="#C8B7E0" stop-opacity=".289"/><stop offset=".592" stop-color="#A595C8" stop-opacity=".592"/><stop offset=".84" stop-color="#8F81B8" stop-opacity=".84"/><stop offset="1" stop-color="#8779B3"/></linearGradient><linearGradient id="w" x1="17.263" y1="15.257" x2="16.601" y2="15.375" gradientUnits="userSpaceOnUse"><stop stop-color="#F0DDFC" stop-opacity="0"/><stop offset=".289" stop-color="#C8B7E0" stop-opacity=".289"/><stop offset=".592" stop-color="#A595C8" stop-opacity=".592"/><stop offset=".84" stop-color="#8F81B8" stop-opacity=".84"/><stop offset="1" stop-color="#8779B3"/></linearGradient><linearGradient id="x" x1="7.152" y1="17.712" x2="6.982" y2="18.846" gradientUnits="userSpaceOnUse"><stop stop-color="#FFDA45"/><stop offset=".304" stop-color="#FFCE3E"/><stop offset=".856" stop-color="#FFAE2B"/><stop offset="1" stop-color="#FFA425"/></linearGradient><linearGradient id="y" x1="6.761" y1="18.17" x2="8.445" y2="16.45" gradientUnits="userSpaceOnUse"><stop stop-color="#FFDA45" stop-opacity="0"/><stop offset="1" stop-color="#B53759"/></linearGradient><linearGradient id="z" x1="9.253" y1="19.813" x2="8.119" y2="19.983" gradientUnits="userSpaceOnUse"><stop stop-color="#FFDA45"/><stop offset=".304" stop-color="#FFCE3E"/><stop offset=".856" stop-color="#FFAE2B"/><stop offset="1" stop-color="#FFA425"/></linearGradient><linearGradient id="A" x1="8.796" y1="20.204" x2="10.515" y2="18.521" gradientUnits="userSpaceOnUse"><stop stop-color="#FFDA45" stop-opacity="0"/><stop offset="1" stop-color="#B53759"/></linearGradient><linearGradient id="B" x1="11.325" y1="10.271" x2="9.565" y2="13.212" gradientUnits="userSpaceOnUse"><stop stop-color="#FFDA45"/><stop offset=".304" stop-color="#FFCE3E"/><stop offset=".856" stop-color="#FFAE2B"/><stop offset="1" stop-color="#FFA425"/></linearGradient><linearGradient id="C" x1="9.95" y1="12.19" x2="13.568" y2="6.799" gradientUnits="userSpaceOnUse"><stop stop-color="#FFDA45" stop-opacity="0"/><stop offset="1" stop-color="#B53759"/></linearGradient><linearGradient id="D" x1="9.054" y1="11.255" x2="10.802" y2="13.448" gradientUnits="userSpaceOnUse"><stop stop-color="#F0DDFC" stop-opacity="0"/><stop offset=".289" stop-color="#C8B7E0" stop-opacity=".289"/><stop offset=".592" stop-color="#A595C8" stop-opacity=".592"/><stop offset=".84" stop-color="#8F81B8" stop-opacity=".84"/><stop offset="1" stop-color="#8779B3"/></linearGradient><linearGradient id="E" x1="10.03" y1="11.806" x2="9.299" y2="13.163" gradientUnits="userSpaceOnUse"><stop stop-color="#FFDA45" stop-opacity="0"/><stop offset="1" stop-color="#B53759"/></linearGradient><linearGradient id="F" x1="16.694" y1="15.64" x2="13.752" y2="17.4" gradientUnits="userSpaceOnUse"><stop stop-color="#FFDA45"/><stop offset=".304" stop-color="#FFCE3E"/><stop offset=".856" stop-color="#FFAE2B"/><stop offset="1" stop-color="#FFA425"/></linearGradient><linearGradient id="G" x1="15.128" y1="16.777" x2="20.52" y2="13.159" gradientUnits="userSpaceOnUse"><stop stop-color="#FFDA45" stop-opacity="0"/><stop offset="1" stop-color="#B53759"/></linearGradient><linearGradient id="H" x1="15.915" y1="18.075" x2="13.723" y2="16.327" gradientUnits="userSpaceOnUse"><stop stop-color="#FFDA45" stop-opacity="0"/><stop offset="1" stop-color="#B53759"/></linearGradient><linearGradient id="I" x1="15.159" y1="16.935" x2="13.801" y2="17.666" gradientUnits="userSpaceOnUse"><stop stop-color="#FFDA45" stop-opacity="0"/><stop offset="1" stop-color="#B53759"/></linearGradient><linearGradient id="J" x1="12.45" y1="13.552" x2="13.938" y2="15.039" gradientUnits="userSpaceOnUse"><stop stop-color="#E5F3FF"/><stop offset="1" stop-color="#B3CCFF"/></linearGradient><linearGradient id="K" x1="13.481" y1="14.523" x2="11.364" y2="12.633" gradientUnits="userSpaceOnUse"><stop stop-color="#E5F3FF" stop-opacity="0"/><stop offset="1" stop-color="#fff"/></linearGradient><linearGradient id="L" x1="12.826" y1="15.946" x2="16.12" y2="-7.051" gradientUnits="userSpaceOnUse"><stop stop-color="#B3CCFF" stop-opacity="0"/><stop offset="1" stop-color="#9FB0CB"/></linearGradient><linearGradient id="M" x1="16.353" y1="9.256" x2="17.648" y2="11.292" gradientUnits="userSpaceOnUse"><stop stop-color="#8B788A"/><stop offset="1" stop-color="#6E566E"/></linearGradient><linearGradient id="N" x1="17.007" y1="10.28" x2="16.664" y2="9.091" gradientUnits="userSpaceOnUse"><stop stop-color="#8B788A" stop-opacity="0"/><stop offset="1" stop-color="#9E8C92"/></linearGradient><linearGradient id="O" x1="17.273" y1="10.549" x2="18.087" y2="8.454" gradientUnits="userSpaceOnUse"><stop stop-color="#555A66" stop-opacity="0"/><stop offset="1" stop-color="#555A66"/></linearGradient><linearGradient id="P" x1="8.785" y1="18.099" x2="8.962" y2="18.275" gradientUnits="userSpaceOnUse"><stop stop-color="#E5F3FF"/><stop offset="1" stop-color="#B3CCFF"/></linearGradient><linearGradient id="Q" x1="0" y1="11.709" x2="22.271" y2="11.709" gradientUnits="userSpaceOnUse"><stop stop-color="#FF7044"/><stop offset="1" stop-color="#F92814"/></linearGradient><linearGradient id="R" x1="8.062" y1="3.801" x2="8.816" y2="4.555" gradientUnits="userSpaceOnUse"><stop stop-color="#FF7044"/><stop offset="1" stop-color="#F92814"/></linearGradient><linearGradient id="S" x1="4.176" y1="8.635" x2="4.999" y2="9.458" gradientUnits="userSpaceOnUse"><stop stop-color="#92F37F"/><stop offset="1" stop-color="#4AB272"/></linearGradient><linearGradient id="T" x1="22.72" y1="10.254" x2="23.901" y2="11.434" gradientUnits="userSpaceOnUse"><stop stop-color="#92F37F"/><stop offset="1" stop-color="#4AB272"/></linearGradient><clipPath id="a"><path fill="#fff" d="M0 0h25v25H0z"/></clipPath></defs></svg>